M48
; DRILL file {KiCad (5.1.5)-3} date 9/6/2020 9:10:04 AM
; FORMAT={-:-/ absolute / metric / decimal}
; #@! TF.CreationDate,2020-09-06T09:10:04-07:00
; #@! TF.GenerationSoftware,Kicad,Pcbnew,(5.1.5)-3
; #@! TF.FileFunction,Plated,1,4,PTH
FMAT,2
METRIC
T1C0.400
T2C0.500
T3C0.800
T4C0.890
T5C0.900
T6C0.950
T7C1.000
T8C1.100
T9C1.200
T10C1.300
T11C1.600
%
G90
G05
T1
X61.849Y-111.379
X96.012Y-110.744
X96.52Y-138.43
X111.633Y-147.701
X111.76Y-113.03
X136.259Y-108.978
X136.271Y-129.794
X137.668Y-91.567
X137.668Y-111.887
X139.294Y-89.611
X139.316Y-86.862
X139.316Y-128.15
X139.319Y-107.188
X139.319Y-109.92
X140.332Y-86.876
X140.332Y-128.164
X140.335Y-107.202
T2
X66.675Y-114.808
X66.675Y-136.017
X69.215Y-114.808
X69.215Y-136.017
X74.422Y-121.539
X75.692Y-102.489
X75.692Y-115.697
X77.47Y-125.857
X78.74Y-120.015
X79.375Y-122.555
X80.645Y-102.489
X81.153Y-122.174
X129.286Y-96.012
X129.286Y-97.536
X129.54Y-90.424
X129.54Y-91.948
X129.54Y-111.76
X129.54Y-113.284
X129.54Y-117.221
X129.54Y-118.745
X129.54Y-132.334
X129.54Y-133.858
X129.54Y-137.795
X129.54Y-139.319
X137.922Y-132.842
X139.097Y-130.798
T3
X119.749Y-129.65
X119.749Y-132.19
X119.749Y-134.73
X119.749Y-137.27
X119.749Y-139.81
X119.749Y-142.35
X119.749Y-144.89
X119.749Y-147.43
X132.449Y-129.65
X132.449Y-132.19
X132.449Y-134.73
X132.449Y-137.27
X132.449Y-139.81
X132.449Y-142.35
X132.449Y-144.89
X132.449Y-147.43
X119.749Y-87.74
X119.749Y-90.28
X119.749Y-92.82
X119.749Y-95.36
X119.749Y-97.9
X119.749Y-100.44
X119.749Y-102.98
X119.749Y-105.52
X132.449Y-87.74
X132.449Y-90.28
X132.449Y-92.82
X132.449Y-95.36
X132.449Y-97.9
X132.449Y-100.44
X132.449Y-102.98
X132.449Y-105.52
X101.232Y-132.46
X101.232Y-134.46
X103.232Y-132.46
X103.232Y-134.46
X105.144Y-146.7
X105.232Y-132.46
X105.232Y-134.46
X107.684Y-146.7
X119.749Y-108.695
X119.749Y-111.235
X119.749Y-113.775
X119.749Y-116.315
X119.749Y-118.855
X119.749Y-121.395
X119.749Y-123.935
X119.749Y-126.475
X132.449Y-108.695
X132.449Y-111.235
X132.449Y-113.775
X132.449Y-116.315
X132.449Y-118.855
X132.449Y-121.395
X132.449Y-123.935
X132.449Y-126.475
T4
X78.285Y-143.32
X80.825Y-141.8
X88.395Y-143.32
X90.935Y-141.8
T5
X80.165Y-132.08
X81.435Y-129.54
X82.705Y-132.08
X83.975Y-129.54
X85.245Y-132.08
X86.515Y-129.54
X87.785Y-132.08
X89.055Y-129.54
T6
X146.05Y-129.7
X146.05Y-132.2
X146.05Y-134.7
X146.05Y-137.2
X146.05Y-139.7
X86.995Y-106.045
X89.495Y-106.045
X91.995Y-106.045
X138.799Y-116.435
X138.799Y-118.935
X138.799Y-121.435
X138.799Y-123.935
X138.799Y-137.39
X138.799Y-139.89
X138.799Y-142.39
X138.799Y-144.89
X86.995Y-99.695
X89.495Y-99.695
X91.995Y-99.695
X86.995Y-112.395
X89.495Y-112.395
X91.995Y-112.395
X146.05Y-96.68
X146.05Y-99.18
X146.05Y-101.68
X146.05Y-104.18
X146.05Y-106.68
X146.05Y-113.19
X146.05Y-115.69
X146.05Y-118.19
X146.05Y-120.69
X146.05Y-123.19
X138.799Y-95.48
X138.799Y-97.98
X138.799Y-100.48
X138.799Y-102.98
T7
X122.289Y-87.74
X124.829Y-87.74
X122.289Y-100.44
X124.829Y-100.44
X127.369Y-100.44
X129.909Y-100.44
X86.995Y-121.285
X89.535Y-121.285
X92.075Y-121.285
X122.289Y-102.98
X122.289Y-105.52
X124.829Y-102.98
X124.829Y-105.52
X127.369Y-102.98
X127.369Y-105.52
X129.909Y-102.98
X129.909Y-105.52
X122.289Y-144.89
X122.289Y-147.43
X124.829Y-144.89
X124.829Y-147.43
X127.369Y-144.89
X127.369Y-147.43
X129.909Y-144.89
X129.909Y-147.43
X86.995Y-118.745
X89.535Y-118.745
X92.075Y-118.745
X122.289Y-123.935
X122.289Y-126.475
X124.829Y-123.935
X124.829Y-126.475
X127.369Y-123.935
X127.369Y-126.475
X129.909Y-123.935
X129.909Y-126.475
X122.289Y-121.395
X124.829Y-121.395
X127.369Y-121.395
X129.909Y-121.395
X122.301Y-142.367
X124.841Y-142.367
X127.381Y-142.367
X129.921Y-142.367
X122.289Y-129.65
X124.829Y-129.65
X64.77Y-89.535
X64.77Y-92.075
X64.77Y-94.615
X122.289Y-108.695
X124.829Y-108.695
T8
X98.794Y-89.01
X98.794Y-91.55
X98.794Y-94.09
X98.794Y-96.63
X98.794Y-99.17
X98.794Y-101.71
X98.794Y-104.25
X98.794Y-106.79
X98.794Y-109.33
X98.794Y-111.87
X98.794Y-114.41
X98.794Y-116.95
X98.794Y-119.49
X98.794Y-122.03
X98.794Y-124.57
X98.794Y-127.11
X98.794Y-129.65
X98.794Y-132.19
X98.794Y-134.73
X98.794Y-137.27
X98.794Y-139.81
X98.794Y-142.35
X98.794Y-144.89
X98.794Y-147.43
X101.334Y-101.71
X101.334Y-144.89
X103.874Y-101.71
X106.414Y-101.71
X108.954Y-101.71
X110.983Y-130.971
X110.983Y-133.511
X110.983Y-136.051
X110.983Y-138.591
X110.983Y-141.131
X111.494Y-101.71
X114.034Y-89.01
X114.034Y-91.55
X114.034Y-94.09
X114.034Y-96.63
X114.034Y-99.17
X114.034Y-101.71
X114.034Y-104.25
X114.034Y-106.79
X114.034Y-109.33
X114.034Y-111.87
X114.034Y-114.41
X114.034Y-116.95
X114.034Y-119.49
X114.034Y-122.03
X114.034Y-124.57
X114.034Y-127.11
X114.034Y-129.65
X114.034Y-132.19
X114.034Y-134.73
X114.034Y-137.27
X114.034Y-139.81
X114.034Y-142.35
X114.034Y-144.89
X114.034Y-147.43
T9
X55.0Y-136.5
X55.0Y-140.0
X55.0Y-94.5
X55.0Y-98.0
X69.0Y-145.0
X72.5Y-145.0
X55.0Y-108.5
X55.0Y-112.0
X55.0Y-115.5
X55.0Y-119.0
X55.0Y-129.5
X55.0Y-133.0
X62.0Y-145.0
X65.5Y-145.0
X55.0Y-101.5
X55.0Y-105.0
X55.0Y-122.5
X55.0Y-126.0
T10
X77.075Y-90.28
X82.075Y-90.28
X87.075Y-90.28
X92.075Y-90.28
T11
X76.835Y-135.37
X92.385Y-135.37
T0
M30
