G04 #@! TF.GenerationSoftware,KiCad,Pcbnew,(5.1.5)-3*
G04 #@! TF.CreationDate,2020-09-02T18:49:11-07:00*
G04 #@! TF.ProjectId,teensy4_controller,7465656e-7379-4345-9f63-6f6e74726f6c,rev?*
G04 #@! TF.SameCoordinates,Original*
G04 #@! TF.FileFunction,Legend,Top*
G04 #@! TF.FilePolarity,Positive*
%FSLAX46Y46*%
G04 Gerber Fmt 4.6, Leading zero omitted, Abs format (unit mm)*
G04 Created by KiCad (PCBNEW (5.1.5)-3) date 2020-09-02 18:49:11*
%MOMM*%
%LPD*%
G04 APERTURE LIST*
%ADD10C,0.150000*%
%ADD11C,0.300000*%
%ADD12C,0.120000*%
%ADD13C,0.100000*%
G04 APERTURE END LIST*
D10*
X101370476Y-86812380D02*
X101370476Y-85812380D01*
X101751428Y-85812380D01*
X101846666Y-85860000D01*
X101894285Y-85907619D01*
X101941904Y-86002857D01*
X101941904Y-86145714D01*
X101894285Y-86240952D01*
X101846666Y-86288571D01*
X101751428Y-86336190D01*
X101370476Y-86336190D01*
X102370476Y-86145714D02*
X102370476Y-86812380D01*
X102370476Y-86240952D02*
X102418095Y-86193333D01*
X102513333Y-86145714D01*
X102656190Y-86145714D01*
X102751428Y-86193333D01*
X102799047Y-86288571D01*
X102799047Y-86812380D01*
X103275238Y-86812380D02*
X103275238Y-85812380D01*
X103656190Y-85812380D01*
X103751428Y-85860000D01*
X103799047Y-85907619D01*
X103846666Y-86002857D01*
X103846666Y-86145714D01*
X103799047Y-86240952D01*
X103751428Y-86288571D01*
X103656190Y-86336190D01*
X103275238Y-86336190D01*
X105608571Y-86717142D02*
X105560952Y-86764761D01*
X105418095Y-86812380D01*
X105322857Y-86812380D01*
X105180000Y-86764761D01*
X105084761Y-86669523D01*
X105037142Y-86574285D01*
X104989523Y-86383809D01*
X104989523Y-86240952D01*
X105037142Y-86050476D01*
X105084761Y-85955238D01*
X105180000Y-85860000D01*
X105322857Y-85812380D01*
X105418095Y-85812380D01*
X105560952Y-85860000D01*
X105608571Y-85907619D01*
X106180000Y-86812380D02*
X106084761Y-86764761D01*
X106037142Y-86717142D01*
X105989523Y-86621904D01*
X105989523Y-86336190D01*
X106037142Y-86240952D01*
X106084761Y-86193333D01*
X106180000Y-86145714D01*
X106322857Y-86145714D01*
X106418095Y-86193333D01*
X106465714Y-86240952D01*
X106513333Y-86336190D01*
X106513333Y-86621904D01*
X106465714Y-86717142D01*
X106418095Y-86764761D01*
X106322857Y-86812380D01*
X106180000Y-86812380D01*
X106941904Y-86145714D02*
X106941904Y-86812380D01*
X106941904Y-86240952D02*
X106989523Y-86193333D01*
X107084761Y-86145714D01*
X107227619Y-86145714D01*
X107322857Y-86193333D01*
X107370476Y-86288571D01*
X107370476Y-86812380D01*
X107703809Y-86145714D02*
X108084761Y-86145714D01*
X107846666Y-85812380D02*
X107846666Y-86669523D01*
X107894285Y-86764761D01*
X107989523Y-86812380D01*
X108084761Y-86812380D01*
X108418095Y-86812380D02*
X108418095Y-86145714D01*
X108418095Y-86336190D02*
X108465714Y-86240952D01*
X108513333Y-86193333D01*
X108608571Y-86145714D01*
X108703809Y-86145714D01*
X109180000Y-86812380D02*
X109084761Y-86764761D01*
X109037142Y-86717142D01*
X108989523Y-86621904D01*
X108989523Y-86336190D01*
X109037142Y-86240952D01*
X109084761Y-86193333D01*
X109180000Y-86145714D01*
X109322857Y-86145714D01*
X109418095Y-86193333D01*
X109465714Y-86240952D01*
X109513333Y-86336190D01*
X109513333Y-86621904D01*
X109465714Y-86717142D01*
X109418095Y-86764761D01*
X109322857Y-86812380D01*
X109180000Y-86812380D01*
X110084761Y-86812380D02*
X109989523Y-86764761D01*
X109941904Y-86669523D01*
X109941904Y-85812380D01*
X110608571Y-86812380D02*
X110513333Y-86764761D01*
X110465714Y-86669523D01*
X110465714Y-85812380D01*
X111370476Y-86764761D02*
X111275238Y-86812380D01*
X111084761Y-86812380D01*
X110989523Y-86764761D01*
X110941904Y-86669523D01*
X110941904Y-86288571D01*
X110989523Y-86193333D01*
X111084761Y-86145714D01*
X111275238Y-86145714D01*
X111370476Y-86193333D01*
X111418095Y-86288571D01*
X111418095Y-86383809D01*
X110941904Y-86479047D01*
X111846666Y-86812380D02*
X111846666Y-86145714D01*
X111846666Y-86336190D02*
X111894285Y-86240952D01*
X111941904Y-86193333D01*
X112037142Y-86145714D01*
X112132380Y-86145714D01*
D11*
X135682000Y-137715571D02*
X135682000Y-136858428D01*
X136196285Y-137887000D02*
X134396285Y-137287000D01*
X136196285Y-136687000D01*
X135253428Y-114933428D02*
X135339142Y-114676285D01*
X135424857Y-114590571D01*
X135596285Y-114504857D01*
X135853428Y-114504857D01*
X136024857Y-114590571D01*
X136110571Y-114676285D01*
X136196285Y-114847714D01*
X136196285Y-115533428D01*
X134396285Y-115533428D01*
X134396285Y-114933428D01*
X134482000Y-114762000D01*
X134567714Y-114676285D01*
X134739142Y-114590571D01*
X134910571Y-114590571D01*
X135082000Y-114676285D01*
X135167714Y-114762000D01*
X135253428Y-114933428D01*
X135253428Y-115533428D01*
X136024857Y-94946857D02*
X136110571Y-95032571D01*
X136196285Y-95289714D01*
X136196285Y-95461142D01*
X136110571Y-95718285D01*
X135939142Y-95889714D01*
X135767714Y-95975428D01*
X135424857Y-96061142D01*
X135167714Y-96061142D01*
X134824857Y-95975428D01*
X134653428Y-95889714D01*
X134482000Y-95718285D01*
X134396285Y-95461142D01*
X134396285Y-95289714D01*
X134482000Y-95032571D01*
X134567714Y-94946857D01*
X142905285Y-93691000D02*
X142905285Y-92491000D01*
X144705285Y-93691000D01*
X144705285Y-92491000D01*
X142705142Y-113030000D02*
X143562285Y-113030000D01*
X141762285Y-113630000D02*
X142705142Y-113030000D01*
X141762285Y-112430000D01*
X141762285Y-130267000D02*
X143562285Y-129067000D01*
X141762285Y-129067000D02*
X143562285Y-130267000D01*
D10*
X82891380Y-103163333D02*
X82891380Y-102496666D01*
X83891380Y-103163333D01*
X83891380Y-102496666D01*
X83510428Y-102115714D02*
X83510428Y-101353809D01*
X83843761Y-100925238D02*
X83891380Y-100782380D01*
X83891380Y-100544285D01*
X83843761Y-100449047D01*
X83796142Y-100401428D01*
X83700904Y-100353809D01*
X83605666Y-100353809D01*
X83510428Y-100401428D01*
X83462809Y-100449047D01*
X83415190Y-100544285D01*
X83367571Y-100734761D01*
X83319952Y-100830000D01*
X83272333Y-100877619D01*
X83177095Y-100925238D01*
X83081857Y-100925238D01*
X82986619Y-100877619D01*
X82939000Y-100830000D01*
X82891380Y-100734761D01*
X82891380Y-100496666D01*
X82939000Y-100353809D01*
X82891380Y-100068095D02*
X82891380Y-99496666D01*
X83891380Y-99782380D02*
X82891380Y-99782380D01*
X82891380Y-98972857D02*
X82891380Y-98782380D01*
X82939000Y-98687142D01*
X83034238Y-98591904D01*
X83224714Y-98544285D01*
X83558047Y-98544285D01*
X83748523Y-98591904D01*
X83843761Y-98687142D01*
X83891380Y-98782380D01*
X83891380Y-98972857D01*
X83843761Y-99068095D01*
X83748523Y-99163333D01*
X83558047Y-99210952D01*
X83224714Y-99210952D01*
X83034238Y-99163333D01*
X82939000Y-99068095D01*
X82891380Y-98972857D01*
X83891380Y-98115714D02*
X82891380Y-98115714D01*
X82891380Y-97734761D01*
X82939000Y-97639523D01*
X82986619Y-97591904D01*
X83081857Y-97544285D01*
X83224714Y-97544285D01*
X83319952Y-97591904D01*
X83367571Y-97639523D01*
X83415190Y-97734761D01*
X83415190Y-98115714D01*
X83415190Y-109180000D02*
X83891380Y-109180000D01*
X82891380Y-109513333D02*
X83415190Y-109180000D01*
X82891380Y-108846666D01*
X83510428Y-108513333D02*
X83510428Y-107751428D01*
X83843761Y-107322857D02*
X83891380Y-107180000D01*
X83891380Y-106941904D01*
X83843761Y-106846666D01*
X83796142Y-106799047D01*
X83700904Y-106751428D01*
X83605666Y-106751428D01*
X83510428Y-106799047D01*
X83462809Y-106846666D01*
X83415190Y-106941904D01*
X83367571Y-107132380D01*
X83319952Y-107227619D01*
X83272333Y-107275238D01*
X83177095Y-107322857D01*
X83081857Y-107322857D01*
X82986619Y-107275238D01*
X82939000Y-107227619D01*
X82891380Y-107132380D01*
X82891380Y-106894285D01*
X82939000Y-106751428D01*
X82891380Y-106465714D02*
X82891380Y-105894285D01*
X83891380Y-106180000D02*
X82891380Y-106180000D01*
X82891380Y-105370476D02*
X82891380Y-105180000D01*
X82939000Y-105084761D01*
X83034238Y-104989523D01*
X83224714Y-104941904D01*
X83558047Y-104941904D01*
X83748523Y-104989523D01*
X83843761Y-105084761D01*
X83891380Y-105180000D01*
X83891380Y-105370476D01*
X83843761Y-105465714D01*
X83748523Y-105560952D01*
X83558047Y-105608571D01*
X83224714Y-105608571D01*
X83034238Y-105560952D01*
X82939000Y-105465714D01*
X82891380Y-105370476D01*
X83891380Y-104513333D02*
X82891380Y-104513333D01*
X82891380Y-104132380D01*
X82939000Y-104037142D01*
X82986619Y-103989523D01*
X83081857Y-103941904D01*
X83224714Y-103941904D01*
X83319952Y-103989523D01*
X83367571Y-104037142D01*
X83415190Y-104132380D01*
X83415190Y-104513333D01*
X82891380Y-115863333D02*
X83891380Y-115196666D01*
X82891380Y-115196666D02*
X83891380Y-115863333D01*
X83510428Y-114815714D02*
X83510428Y-114053809D01*
X83843761Y-113625238D02*
X83891380Y-113482380D01*
X83891380Y-113244285D01*
X83843761Y-113149047D01*
X83796142Y-113101428D01*
X83700904Y-113053809D01*
X83605666Y-113053809D01*
X83510428Y-113101428D01*
X83462809Y-113149047D01*
X83415190Y-113244285D01*
X83367571Y-113434761D01*
X83319952Y-113530000D01*
X83272333Y-113577619D01*
X83177095Y-113625238D01*
X83081857Y-113625238D01*
X82986619Y-113577619D01*
X82939000Y-113530000D01*
X82891380Y-113434761D01*
X82891380Y-113196666D01*
X82939000Y-113053809D01*
X82891380Y-112768095D02*
X82891380Y-112196666D01*
X83891380Y-112482380D02*
X82891380Y-112482380D01*
X82891380Y-111672857D02*
X82891380Y-111482380D01*
X82939000Y-111387142D01*
X83034238Y-111291904D01*
X83224714Y-111244285D01*
X83558047Y-111244285D01*
X83748523Y-111291904D01*
X83843761Y-111387142D01*
X83891380Y-111482380D01*
X83891380Y-111672857D01*
X83843761Y-111768095D01*
X83748523Y-111863333D01*
X83558047Y-111910952D01*
X83224714Y-111910952D01*
X83034238Y-111863333D01*
X82939000Y-111768095D01*
X82891380Y-111672857D01*
X83891380Y-110815714D02*
X82891380Y-110815714D01*
X82891380Y-110434761D01*
X82939000Y-110339523D01*
X82986619Y-110291904D01*
X83081857Y-110244285D01*
X83224714Y-110244285D01*
X83319952Y-110291904D01*
X83367571Y-110339523D01*
X83415190Y-110434761D01*
X83415190Y-110815714D01*
X92479761Y-123856714D02*
X92527380Y-123713857D01*
X92527380Y-123475761D01*
X92479761Y-123380523D01*
X92432142Y-123332904D01*
X92336904Y-123285285D01*
X92241666Y-123285285D01*
X92146428Y-123332904D01*
X92098809Y-123380523D01*
X92051190Y-123475761D01*
X92003571Y-123666238D01*
X91955952Y-123761476D01*
X91908333Y-123809095D01*
X91813095Y-123856714D01*
X91717857Y-123856714D01*
X91622619Y-123809095D01*
X91575000Y-123761476D01*
X91527380Y-123666238D01*
X91527380Y-123428142D01*
X91575000Y-123285285D01*
X89114380Y-123904333D02*
X90114380Y-123571000D01*
X89114380Y-123237666D01*
X86622000Y-123309095D02*
X86574380Y-123404333D01*
X86574380Y-123547190D01*
X86622000Y-123690047D01*
X86717238Y-123785285D01*
X86812476Y-123832904D01*
X87002952Y-123880523D01*
X87145809Y-123880523D01*
X87336285Y-123832904D01*
X87431523Y-123785285D01*
X87526761Y-123690047D01*
X87574380Y-123547190D01*
X87574380Y-123451952D01*
X87526761Y-123309095D01*
X87479142Y-123261476D01*
X87145809Y-123261476D01*
X87145809Y-123451952D01*
X83566095Y-119149761D02*
X83708952Y-119197380D01*
X83947047Y-119197380D01*
X84042285Y-119149761D01*
X84089904Y-119102142D01*
X84137523Y-119006904D01*
X84137523Y-118911666D01*
X84089904Y-118816428D01*
X84042285Y-118768809D01*
X83947047Y-118721190D01*
X83756571Y-118673571D01*
X83661333Y-118625952D01*
X83613714Y-118578333D01*
X83566095Y-118483095D01*
X83566095Y-118387857D01*
X83613714Y-118292619D01*
X83661333Y-118245000D01*
X83756571Y-118197380D01*
X83994666Y-118197380D01*
X84137523Y-118245000D01*
X85089904Y-119197380D02*
X84518476Y-119197380D01*
X84804190Y-119197380D02*
X84804190Y-118197380D01*
X84708952Y-118340238D01*
X84613714Y-118435476D01*
X84518476Y-118483095D01*
X83566095Y-121816761D02*
X83708952Y-121864380D01*
X83947047Y-121864380D01*
X84042285Y-121816761D01*
X84089904Y-121769142D01*
X84137523Y-121673904D01*
X84137523Y-121578666D01*
X84089904Y-121483428D01*
X84042285Y-121435809D01*
X83947047Y-121388190D01*
X83756571Y-121340571D01*
X83661333Y-121292952D01*
X83613714Y-121245333D01*
X83566095Y-121150095D01*
X83566095Y-121054857D01*
X83613714Y-120959619D01*
X83661333Y-120912000D01*
X83756571Y-120864380D01*
X83994666Y-120864380D01*
X84137523Y-120912000D01*
X84756571Y-120864380D02*
X84851809Y-120864380D01*
X84947047Y-120912000D01*
X84994666Y-120959619D01*
X85042285Y-121054857D01*
X85089904Y-121245333D01*
X85089904Y-121483428D01*
X85042285Y-121673904D01*
X84994666Y-121769142D01*
X84947047Y-121816761D01*
X84851809Y-121864380D01*
X84756571Y-121864380D01*
X84661333Y-121816761D01*
X84613714Y-121769142D01*
X84566095Y-121673904D01*
X84518476Y-121483428D01*
X84518476Y-121245333D01*
X84566095Y-121054857D01*
X84613714Y-120959619D01*
X84661333Y-120912000D01*
X84756571Y-120864380D01*
D12*
X94175733Y-138686000D02*
X94518267Y-138686000D01*
X94175733Y-137666000D02*
X94518267Y-137666000D01*
X76423733Y-125130000D02*
X76766267Y-125130000D01*
X76423733Y-124110000D02*
X76766267Y-124110000D01*
X94875000Y-85380000D02*
X94375000Y-85380000D01*
X94875000Y-86120000D02*
X94875000Y-85380000D01*
X78302000Y-89257000D02*
X78349000Y-89211000D01*
X76005000Y-91555000D02*
X76040000Y-91519000D01*
X78109000Y-89041000D02*
X78144000Y-89006000D01*
X75800000Y-91349000D02*
X75847000Y-91303000D01*
X83302000Y-89257000D02*
X83349000Y-89211000D01*
X81005000Y-91555000D02*
X81040000Y-91519000D01*
X83109000Y-89041000D02*
X83144000Y-89006000D01*
X80800000Y-91349000D02*
X80847000Y-91303000D01*
X88302000Y-89257000D02*
X88349000Y-89211000D01*
X86005000Y-91555000D02*
X86040000Y-91519000D01*
X88109000Y-89041000D02*
X88144000Y-89006000D01*
X85800000Y-91349000D02*
X85847000Y-91303000D01*
X74514000Y-95541000D02*
X74514000Y-85620000D01*
X94635000Y-95541000D02*
X94635000Y-85620000D01*
X94635000Y-85620000D02*
X74514000Y-85620000D01*
X94635000Y-95541000D02*
X74514000Y-95541000D01*
X94635000Y-92581000D02*
X74514000Y-92581000D01*
X94635000Y-87680000D02*
X74514000Y-87680000D01*
X94635000Y-86180000D02*
X74514000Y-86180000D01*
X78755000Y-90280000D02*
G75*
G03X78755000Y-90280000I-1680000J0D01*
G01*
X83755000Y-90280000D02*
G75*
G03X83755000Y-90280000I-1680000J0D01*
G01*
X88755000Y-90280000D02*
G75*
G03X88755000Y-90280000I-1680000J0D01*
G01*
X92046195Y-88599747D02*
G75*
G02X92759000Y-88745000I28805J-1680253D01*
G01*
X93610426Y-89596958D02*
G75*
G02X93610000Y-90964000I-1535426J-683042D01*
G01*
X92758042Y-91815426D02*
G75*
G02X91391000Y-91815000I-683042J1535426D01*
G01*
X90539574Y-90963042D02*
G75*
G02X90540000Y-89596000I1535426J683042D01*
G01*
X91391682Y-88745244D02*
G75*
G02X92075000Y-88600000I683318J-1534756D01*
G01*
X76435000Y-131080000D02*
X76435000Y-133080000D01*
X76635000Y-149410000D02*
X76635000Y-136970000D01*
X92585000Y-149410000D02*
X76635000Y-149410000D01*
X92585000Y-136970000D02*
X92585000Y-149410000D01*
X92585000Y-127490000D02*
X92585000Y-133770000D01*
X76635000Y-127490000D02*
X92585000Y-127490000D01*
X76635000Y-133770000D02*
X76635000Y-127490000D01*
X94484436Y-142076000D02*
X95688564Y-142076000D01*
X94484436Y-139356000D02*
X95688564Y-139356000D01*
X67787733Y-119763000D02*
X68130267Y-119763000D01*
X67787733Y-118743000D02*
X68130267Y-118743000D01*
X131251000Y-141037000D02*
X131251000Y-142367000D01*
X129921000Y-141037000D02*
X131251000Y-141037000D01*
X128651000Y-141037000D02*
X128651000Y-143697000D01*
X128651000Y-143697000D02*
X120971000Y-143697000D01*
X128651000Y-141037000D02*
X120971000Y-141037000D01*
X120971000Y-141037000D02*
X120971000Y-143697000D01*
X79885000Y-124871267D02*
X79885000Y-124528733D01*
X78865000Y-124871267D02*
X78865000Y-124528733D01*
X81863000Y-124857252D02*
X81863000Y-124334748D01*
X80443000Y-124857252D02*
X80443000Y-124334748D01*
X85665000Y-120075000D02*
X85665000Y-118745000D01*
X86995000Y-120075000D02*
X85665000Y-120075000D01*
X88265000Y-120075000D02*
X88265000Y-117415000D01*
X88265000Y-117415000D02*
X93405000Y-117415000D01*
X88265000Y-120075000D02*
X93405000Y-120075000D01*
X93405000Y-120075000D02*
X93405000Y-117415000D01*
X85665000Y-122615000D02*
X85665000Y-121285000D01*
X86995000Y-122615000D02*
X85665000Y-122615000D01*
X88265000Y-122615000D02*
X88265000Y-119955000D01*
X88265000Y-119955000D02*
X93405000Y-119955000D01*
X88265000Y-122615000D02*
X93405000Y-122615000D01*
X93405000Y-122615000D02*
X93405000Y-119955000D01*
D10*
X107312026Y-106155000D02*
G75*
G03X107312026Y-106155000I-898026J0D01*
G01*
X100064000Y-125840000D02*
X112764000Y-125840000D01*
X100064000Y-113140000D02*
X100064000Y-125840000D01*
X112764000Y-113140000D02*
X100064000Y-113140000D01*
X112764000Y-125840000D02*
X112764000Y-113140000D01*
X100062400Y-135470000D02*
X100312400Y-135470000D01*
X100062400Y-131470000D02*
X100062400Y-135470000D01*
X106312400Y-131470000D02*
X100062400Y-131470000D01*
X106312400Y-135470000D02*
X106312400Y-131470000D01*
X100312400Y-135470000D02*
X106312400Y-135470000D01*
X109713200Y-139860800D02*
X112253200Y-139860800D01*
X109713200Y-142400800D02*
X109713200Y-139860800D01*
X112253200Y-142400800D02*
X109713200Y-142400800D01*
X112253200Y-129700800D02*
X112253200Y-142400800D01*
X109713200Y-129700800D02*
X112253200Y-129700800D01*
X109713200Y-142400800D02*
X109713200Y-129700800D01*
X105144000Y-108060000D02*
X105144000Y-104250000D01*
X107684000Y-108060000D02*
X105144000Y-108060000D01*
X107684000Y-104250000D02*
X107684000Y-108060000D01*
X105144000Y-104250000D02*
X107684000Y-104250000D01*
X111494000Y-89010000D02*
X111494000Y-87740000D01*
X101334000Y-89010000D02*
X111494000Y-89010000D01*
X101334000Y-87740000D02*
X101334000Y-89010000D01*
X112764000Y-100440000D02*
X112764000Y-87740000D01*
X100064000Y-100440000D02*
X112764000Y-100440000D01*
X100064000Y-87740000D02*
X100064000Y-100440000D01*
X110224000Y-148700000D02*
X110224000Y-149970000D01*
X110224000Y-149970000D02*
X102604000Y-149970000D01*
X102604000Y-149970000D02*
X102604000Y-148700000D01*
X110224000Y-143620000D02*
X102604000Y-143620000D01*
X102604000Y-143620000D02*
X102604000Y-148700000D01*
X110224000Y-143620000D02*
X110224000Y-148700000D01*
X97524000Y-148700000D02*
X97524000Y-87740000D01*
X97524000Y-87740000D02*
X115304000Y-87740000D01*
X115304000Y-87740000D02*
X115304000Y-148700000D01*
X115304000Y-148700000D02*
X97524000Y-148700000D01*
D13*
G36*
X106869000Y-115785000D02*
G01*
X107123000Y-116039000D01*
X106742000Y-116293000D01*
X106488000Y-116039000D01*
X106869000Y-115785000D01*
G37*
X106869000Y-115785000D02*
X107123000Y-116039000D01*
X106742000Y-116293000D01*
X106488000Y-116039000D01*
X106869000Y-115785000D01*
G36*
X106361000Y-116166000D02*
G01*
X106615000Y-116420000D01*
X106234000Y-116674000D01*
X105980000Y-116420000D01*
X106361000Y-116166000D01*
G37*
X106361000Y-116166000D02*
X106615000Y-116420000D01*
X106234000Y-116674000D01*
X105980000Y-116420000D01*
X106361000Y-116166000D01*
G36*
X105853000Y-116547000D02*
G01*
X106107000Y-116801000D01*
X105726000Y-117055000D01*
X105472000Y-116801000D01*
X105853000Y-116547000D01*
G37*
X105853000Y-116547000D02*
X106107000Y-116801000D01*
X105726000Y-117055000D01*
X105472000Y-116801000D01*
X105853000Y-116547000D01*
G36*
X106742000Y-116547000D02*
G01*
X106996000Y-116801000D01*
X106615000Y-117055000D01*
X106361000Y-116801000D01*
X106742000Y-116547000D01*
G37*
X106742000Y-116547000D02*
X106996000Y-116801000D01*
X106615000Y-117055000D01*
X106361000Y-116801000D01*
X106742000Y-116547000D01*
G36*
X106234000Y-116928000D02*
G01*
X106488000Y-117182000D01*
X106107000Y-117436000D01*
X105853000Y-117182000D01*
X106234000Y-116928000D01*
G37*
X106234000Y-116928000D02*
X106488000Y-117182000D01*
X106107000Y-117436000D01*
X105853000Y-117182000D01*
X106234000Y-116928000D01*
G36*
X105726000Y-117309000D02*
G01*
X105980000Y-117563000D01*
X105599000Y-117817000D01*
X105345000Y-117563000D01*
X105726000Y-117309000D01*
G37*
X105726000Y-117309000D02*
X105980000Y-117563000D01*
X105599000Y-117817000D01*
X105345000Y-117563000D01*
X105726000Y-117309000D01*
G36*
X106488000Y-115404000D02*
G01*
X106742000Y-115658000D01*
X106361000Y-115912000D01*
X106107000Y-115658000D01*
X106488000Y-115404000D01*
G37*
X106488000Y-115404000D02*
X106742000Y-115658000D01*
X106361000Y-115912000D01*
X106107000Y-115658000D01*
X106488000Y-115404000D01*
G36*
X106107000Y-115023000D02*
G01*
X106361000Y-115277000D01*
X105980000Y-115531000D01*
X105726000Y-115277000D01*
X106107000Y-115023000D01*
G37*
X106107000Y-115023000D02*
X106361000Y-115277000D01*
X105980000Y-115531000D01*
X105726000Y-115277000D01*
X106107000Y-115023000D01*
D12*
X143300000Y-109530000D02*
X144550000Y-109530000D01*
X143300000Y-108280000D02*
X143300000Y-109530000D01*
X148800000Y-94880000D02*
X148800000Y-101680000D01*
X145850000Y-94880000D02*
X148800000Y-94880000D01*
X145850000Y-94130000D02*
X145850000Y-94880000D01*
X148800000Y-101680000D02*
X148800000Y-107420000D01*
X145850000Y-108480000D02*
X147190000Y-108480000D01*
X145850000Y-109230000D02*
X145850000Y-108480000D01*
X143600000Y-94130000D02*
X143600000Y-95930000D01*
X144350000Y-94130000D02*
X143600000Y-94130000D01*
X144350000Y-95930000D02*
X144350000Y-94130000D01*
X143600000Y-95930000D02*
X144350000Y-95930000D01*
X143600000Y-107430000D02*
X143600000Y-109230000D01*
X144350000Y-107430000D02*
X143600000Y-107430000D01*
X144350000Y-109230000D02*
X144350000Y-107430000D01*
X143600000Y-109230000D02*
X144350000Y-109230000D01*
X143600000Y-97430000D02*
X143600000Y-105930000D01*
X144350000Y-97430000D02*
X143600000Y-97430000D01*
X144350000Y-105930000D02*
X144350000Y-97430000D01*
X143600000Y-105930000D02*
X144350000Y-105930000D01*
X143590000Y-94120000D02*
X143590000Y-109240000D01*
X149560000Y-94120000D02*
X143590000Y-94120000D01*
X149560000Y-109240000D02*
X149560000Y-94120000D01*
X143590000Y-109240000D02*
X149560000Y-109240000D01*
X143300000Y-126040000D02*
X144550000Y-126040000D01*
X143300000Y-124790000D02*
X143300000Y-126040000D01*
X148800000Y-111390000D02*
X148800000Y-118190000D01*
X145850000Y-111390000D02*
X148800000Y-111390000D01*
X145850000Y-110640000D02*
X145850000Y-111390000D01*
X148800000Y-118190000D02*
X148800000Y-123930000D01*
X145850000Y-124990000D02*
X147190000Y-124990000D01*
X145850000Y-125740000D02*
X145850000Y-124990000D01*
X143600000Y-110640000D02*
X143600000Y-112440000D01*
X144350000Y-110640000D02*
X143600000Y-110640000D01*
X144350000Y-112440000D02*
X144350000Y-110640000D01*
X143600000Y-112440000D02*
X144350000Y-112440000D01*
X143600000Y-123940000D02*
X143600000Y-125740000D01*
X144350000Y-123940000D02*
X143600000Y-123940000D01*
X144350000Y-125740000D02*
X144350000Y-123940000D01*
X143600000Y-125740000D02*
X144350000Y-125740000D01*
X143600000Y-113940000D02*
X143600000Y-122440000D01*
X144350000Y-113940000D02*
X143600000Y-113940000D01*
X144350000Y-122440000D02*
X144350000Y-113940000D01*
X143600000Y-122440000D02*
X144350000Y-122440000D01*
X143590000Y-110630000D02*
X143590000Y-125750000D01*
X149560000Y-110630000D02*
X143590000Y-110630000D01*
X149560000Y-125750000D02*
X149560000Y-110630000D01*
X143590000Y-125750000D02*
X149560000Y-125750000D01*
X143300000Y-142550000D02*
X144550000Y-142550000D01*
X143300000Y-141300000D02*
X143300000Y-142550000D01*
X148800000Y-127900000D02*
X148800000Y-134700000D01*
X145850000Y-127900000D02*
X148800000Y-127900000D01*
X145850000Y-127150000D02*
X145850000Y-127900000D01*
X148800000Y-134700000D02*
X148800000Y-140440000D01*
X145850000Y-141500000D02*
X147190000Y-141500000D01*
X145850000Y-142250000D02*
X145850000Y-141500000D01*
X143600000Y-127150000D02*
X143600000Y-128950000D01*
X144350000Y-127150000D02*
X143600000Y-127150000D01*
X144350000Y-128950000D02*
X144350000Y-127150000D01*
X143600000Y-128950000D02*
X144350000Y-128950000D01*
X143600000Y-140450000D02*
X143600000Y-142250000D01*
X144350000Y-140450000D02*
X143600000Y-140450000D01*
X144350000Y-142250000D02*
X144350000Y-140450000D01*
X143600000Y-142250000D02*
X144350000Y-142250000D01*
X143600000Y-130450000D02*
X143600000Y-138950000D01*
X144350000Y-130450000D02*
X143600000Y-130450000D01*
X144350000Y-138950000D02*
X144350000Y-130450000D01*
X143600000Y-138950000D02*
X144350000Y-138950000D01*
X143590000Y-127140000D02*
X143590000Y-142260000D01*
X149560000Y-127140000D02*
X143590000Y-127140000D01*
X149560000Y-142260000D02*
X149560000Y-127140000D01*
X143590000Y-142260000D02*
X149560000Y-142260000D01*
X120959000Y-106850000D02*
X120959000Y-105520000D01*
X122289000Y-106850000D02*
X120959000Y-106850000D01*
X120959000Y-104250000D02*
X120959000Y-101650000D01*
X123559000Y-104250000D02*
X120959000Y-104250000D01*
X123559000Y-106850000D02*
X123559000Y-104250000D01*
X120959000Y-101650000D02*
X131239000Y-101650000D01*
X123559000Y-106850000D02*
X131239000Y-106850000D01*
X131239000Y-106850000D02*
X131239000Y-101650000D01*
X120959000Y-127805000D02*
X120959000Y-126475000D01*
X122289000Y-127805000D02*
X120959000Y-127805000D01*
X120959000Y-125205000D02*
X120959000Y-122605000D01*
X123559000Y-125205000D02*
X120959000Y-125205000D01*
X123559000Y-127805000D02*
X123559000Y-125205000D01*
X120959000Y-122605000D02*
X131239000Y-122605000D01*
X123559000Y-127805000D02*
X131239000Y-127805000D01*
X131239000Y-127805000D02*
X131239000Y-122605000D01*
X120959000Y-148760000D02*
X120959000Y-147430000D01*
X122289000Y-148760000D02*
X120959000Y-148760000D01*
X120959000Y-146160000D02*
X120959000Y-143560000D01*
X123559000Y-146160000D02*
X120959000Y-146160000D01*
X123559000Y-148760000D02*
X123559000Y-146160000D01*
X120959000Y-143560000D02*
X131239000Y-143560000D01*
X123559000Y-148760000D02*
X131239000Y-148760000D01*
X131239000Y-148760000D02*
X131239000Y-143560000D01*
X134479000Y-145593733D02*
X134479000Y-145936267D01*
X135499000Y-145593733D02*
X135499000Y-145936267D01*
X134479000Y-124638733D02*
X134479000Y-124981267D01*
X135499000Y-124638733D02*
X135499000Y-124981267D01*
X136049000Y-126785000D02*
X137299000Y-126785000D01*
X136049000Y-125535000D02*
X136049000Y-126785000D01*
X141549000Y-114635000D02*
X141549000Y-120185000D01*
X138599000Y-114635000D02*
X141549000Y-114635000D01*
X138599000Y-113885000D02*
X138599000Y-114635000D01*
X141549000Y-125735000D02*
X141549000Y-120185000D01*
X138599000Y-125735000D02*
X141549000Y-125735000D01*
X138599000Y-126485000D02*
X138599000Y-125735000D01*
X136349000Y-113885000D02*
X136349000Y-115685000D01*
X137099000Y-113885000D02*
X136349000Y-113885000D01*
X137099000Y-115685000D02*
X137099000Y-113885000D01*
X136349000Y-115685000D02*
X137099000Y-115685000D01*
X136349000Y-124685000D02*
X136349000Y-126485000D01*
X137099000Y-124685000D02*
X136349000Y-124685000D01*
X137099000Y-126485000D02*
X137099000Y-124685000D01*
X136349000Y-126485000D02*
X137099000Y-126485000D01*
X136349000Y-117185000D02*
X136349000Y-123185000D01*
X137099000Y-117185000D02*
X136349000Y-117185000D01*
X137099000Y-123185000D02*
X137099000Y-117185000D01*
X136349000Y-123185000D02*
X137099000Y-123185000D01*
X136339000Y-113875000D02*
X136339000Y-126495000D01*
X142309000Y-113875000D02*
X136339000Y-113875000D01*
X142309000Y-126495000D02*
X142309000Y-113875000D01*
X136339000Y-126495000D02*
X142309000Y-126495000D01*
X138504000Y-130230000D02*
X135504000Y-130230000D01*
X139504000Y-133470000D02*
X137504000Y-133470000D01*
X129610250Y-111161250D02*
X128822750Y-111161250D01*
X129216500Y-110767500D02*
X129216500Y-111555000D01*
X125023437Y-111795000D02*
X123959000Y-112859437D01*
X129714563Y-111795000D02*
X130779000Y-112859437D01*
X129714563Y-111795000D02*
X128429000Y-111795000D01*
X125023437Y-111795000D02*
X126309000Y-111795000D01*
X123959000Y-112859437D02*
X123959000Y-118615000D01*
X130779000Y-112859437D02*
X130779000Y-118615000D01*
X130779000Y-118615000D02*
X128429000Y-118615000D01*
X123959000Y-118615000D02*
X126309000Y-118615000D01*
X140000267Y-128776000D02*
X139657733Y-128776000D01*
X140000267Y-129796000D02*
X139657733Y-129796000D01*
X118349000Y-127875000D02*
X131179000Y-127875000D01*
X118349000Y-107295000D02*
X118349000Y-127875000D01*
X133849000Y-107295000D02*
X118349000Y-107295000D01*
X133849000Y-125205000D02*
X133849000Y-107295000D01*
X131179000Y-125205000D02*
X133849000Y-125205000D01*
X131179000Y-127875000D02*
X131179000Y-125205000D01*
X133849000Y-127875000D02*
X133849000Y-126475000D01*
X132449000Y-127875000D02*
X133849000Y-127875000D01*
X131179000Y-125205000D02*
X131179000Y-107295000D01*
X121019000Y-127875000D02*
X121019000Y-107295000D01*
X78170000Y-113010000D02*
X81620000Y-113010000D01*
X78170000Y-113010000D02*
X76220000Y-113010000D01*
X78170000Y-102890000D02*
X80120000Y-102890000D01*
X78170000Y-102890000D02*
X76220000Y-102890000D01*
X138459000Y-88955000D02*
X135459000Y-88955000D01*
X139459000Y-92195000D02*
X137459000Y-92195000D01*
X59180000Y-134716733D02*
X59180000Y-135059267D01*
X60200000Y-134716733D02*
X60200000Y-135059267D01*
X59180000Y-127477733D02*
X59180000Y-127820267D01*
X60200000Y-127477733D02*
X60200000Y-127820267D01*
X59180000Y-120746733D02*
X59180000Y-121089267D01*
X60200000Y-120746733D02*
X60200000Y-121089267D01*
X59180000Y-113761733D02*
X59180000Y-114104267D01*
X60200000Y-113761733D02*
X60200000Y-114104267D01*
X59180000Y-106776733D02*
X59180000Y-107119267D01*
X60200000Y-106776733D02*
X60200000Y-107119267D01*
X59180000Y-99664733D02*
X59180000Y-100007267D01*
X60200000Y-99664733D02*
X60200000Y-100007267D01*
X116330000Y-105478733D02*
X116330000Y-105821267D01*
X117350000Y-105478733D02*
X117350000Y-105821267D01*
X116330000Y-127068733D02*
X116330000Y-127411267D01*
X117350000Y-127068733D02*
X117350000Y-127411267D01*
X116330000Y-147388733D02*
X116330000Y-147731267D01*
X117350000Y-147388733D02*
X117350000Y-147731267D01*
X96522000Y-113723267D02*
X96522000Y-113380733D01*
X95502000Y-113723267D02*
X95502000Y-113380733D01*
X117350000Y-113706267D02*
X117350000Y-113363733D01*
X116330000Y-113706267D02*
X116330000Y-113363733D01*
X116330000Y-117543733D02*
X116330000Y-117886267D01*
X117350000Y-117543733D02*
X117350000Y-117886267D01*
X50200000Y-134450000D02*
X50200000Y-134850000D01*
X50840000Y-134450000D02*
X50200000Y-134450000D01*
X54059000Y-138855000D02*
X53931000Y-138726000D01*
X56275000Y-141070000D02*
X56181000Y-140976000D01*
X53819000Y-139025000D02*
X53726000Y-138931000D01*
X56069000Y-141275000D02*
X55941000Y-141146000D01*
X58160000Y-141810000D02*
X50440000Y-141810000D01*
X58160000Y-134690000D02*
X50440000Y-134690000D01*
X50440000Y-134690000D02*
X50440000Y-141810000D01*
X58160000Y-134690000D02*
X58160000Y-141810000D01*
X52000000Y-134690000D02*
X52000000Y-141810000D01*
X50900000Y-134690000D02*
X50900000Y-141810000D01*
X56680000Y-140000000D02*
G75*
G03X56680000Y-140000000I-1680000J0D01*
G01*
X53319901Y-136528674D02*
G75*
G02X53560000Y-135634000I1680099J28674D01*
G01*
X54110106Y-135074642D02*
G75*
G02X55866000Y-135060000I889894J-1425358D01*
G01*
X56425358Y-135610106D02*
G75*
G02X56440000Y-137366000I-1425358J-889894D01*
G01*
X55890193Y-137925505D02*
G75*
G02X54109000Y-137925000I-890193J1425505D01*
G01*
X53575279Y-137390264D02*
G75*
G02X53320000Y-136500000I1424721J890264D01*
G01*
X50200000Y-127450000D02*
X50200000Y-127850000D01*
X50840000Y-127450000D02*
X50200000Y-127450000D01*
X54059000Y-131855000D02*
X53931000Y-131726000D01*
X56275000Y-134070000D02*
X56181000Y-133976000D01*
X53819000Y-132025000D02*
X53726000Y-131931000D01*
X56069000Y-134275000D02*
X55941000Y-134146000D01*
X58160000Y-134810000D02*
X50440000Y-134810000D01*
X58160000Y-127690000D02*
X50440000Y-127690000D01*
X50440000Y-127690000D02*
X50440000Y-134810000D01*
X58160000Y-127690000D02*
X58160000Y-134810000D01*
X52000000Y-127690000D02*
X52000000Y-134810000D01*
X50900000Y-127690000D02*
X50900000Y-134810000D01*
X56680000Y-133000000D02*
G75*
G03X56680000Y-133000000I-1680000J0D01*
G01*
X53319901Y-129528674D02*
G75*
G02X53560000Y-128634000I1680099J28674D01*
G01*
X54110106Y-128074642D02*
G75*
G02X55866000Y-128060000I889894J-1425358D01*
G01*
X56425358Y-128610106D02*
G75*
G02X56440000Y-130366000I-1425358J-889894D01*
G01*
X55890193Y-130925505D02*
G75*
G02X54109000Y-130925000I-890193J1425505D01*
G01*
X53575279Y-130390264D02*
G75*
G02X53320000Y-129500000I1424721J890264D01*
G01*
X50200000Y-120450000D02*
X50200000Y-120850000D01*
X50840000Y-120450000D02*
X50200000Y-120450000D01*
X54059000Y-124855000D02*
X53931000Y-124726000D01*
X56275000Y-127070000D02*
X56181000Y-126976000D01*
X53819000Y-125025000D02*
X53726000Y-124931000D01*
X56069000Y-127275000D02*
X55941000Y-127146000D01*
X58160000Y-127810000D02*
X50440000Y-127810000D01*
X58160000Y-120690000D02*
X50440000Y-120690000D01*
X50440000Y-120690000D02*
X50440000Y-127810000D01*
X58160000Y-120690000D02*
X58160000Y-127810000D01*
X52000000Y-120690000D02*
X52000000Y-127810000D01*
X50900000Y-120690000D02*
X50900000Y-127810000D01*
X56680000Y-126000000D02*
G75*
G03X56680000Y-126000000I-1680000J0D01*
G01*
X53319901Y-122528674D02*
G75*
G02X53560000Y-121634000I1680099J28674D01*
G01*
X54110106Y-121074642D02*
G75*
G02X55866000Y-121060000I889894J-1425358D01*
G01*
X56425358Y-121610106D02*
G75*
G02X56440000Y-123366000I-1425358J-889894D01*
G01*
X55890193Y-123925505D02*
G75*
G02X54109000Y-123925000I-890193J1425505D01*
G01*
X53575279Y-123390264D02*
G75*
G02X53320000Y-122500000I1424721J890264D01*
G01*
X50200000Y-113450000D02*
X50200000Y-113850000D01*
X50840000Y-113450000D02*
X50200000Y-113450000D01*
X54059000Y-117855000D02*
X53931000Y-117726000D01*
X56275000Y-120070000D02*
X56181000Y-119976000D01*
X53819000Y-118025000D02*
X53726000Y-117931000D01*
X56069000Y-120275000D02*
X55941000Y-120146000D01*
X58160000Y-120810000D02*
X50440000Y-120810000D01*
X58160000Y-113690000D02*
X50440000Y-113690000D01*
X50440000Y-113690000D02*
X50440000Y-120810000D01*
X58160000Y-113690000D02*
X58160000Y-120810000D01*
X52000000Y-113690000D02*
X52000000Y-120810000D01*
X50900000Y-113690000D02*
X50900000Y-120810000D01*
X56680000Y-119000000D02*
G75*
G03X56680000Y-119000000I-1680000J0D01*
G01*
X53319901Y-115528674D02*
G75*
G02X53560000Y-114634000I1680099J28674D01*
G01*
X54110106Y-114074642D02*
G75*
G02X55866000Y-114060000I889894J-1425358D01*
G01*
X56425358Y-114610106D02*
G75*
G02X56440000Y-116366000I-1425358J-889894D01*
G01*
X55890193Y-116925505D02*
G75*
G02X54109000Y-116925000I-890193J1425505D01*
G01*
X53575279Y-116390264D02*
G75*
G02X53320000Y-115500000I1424721J890264D01*
G01*
X50200000Y-106450000D02*
X50200000Y-106850000D01*
X50840000Y-106450000D02*
X50200000Y-106450000D01*
X54059000Y-110855000D02*
X53931000Y-110726000D01*
X56275000Y-113070000D02*
X56181000Y-112976000D01*
X53819000Y-111025000D02*
X53726000Y-110931000D01*
X56069000Y-113275000D02*
X55941000Y-113146000D01*
X58160000Y-113810000D02*
X50440000Y-113810000D01*
X58160000Y-106690000D02*
X50440000Y-106690000D01*
X50440000Y-106690000D02*
X50440000Y-113810000D01*
X58160000Y-106690000D02*
X58160000Y-113810000D01*
X52000000Y-106690000D02*
X52000000Y-113810000D01*
X50900000Y-106690000D02*
X50900000Y-113810000D01*
X56680000Y-112000000D02*
G75*
G03X56680000Y-112000000I-1680000J0D01*
G01*
X53319901Y-108528674D02*
G75*
G02X53560000Y-107634000I1680099J28674D01*
G01*
X54110106Y-107074642D02*
G75*
G02X55866000Y-107060000I889894J-1425358D01*
G01*
X56425358Y-107610106D02*
G75*
G02X56440000Y-109366000I-1425358J-889894D01*
G01*
X55890193Y-109925505D02*
G75*
G02X54109000Y-109925000I-890193J1425505D01*
G01*
X53575279Y-109390264D02*
G75*
G02X53320000Y-108500000I1424721J890264D01*
G01*
X50200000Y-99450000D02*
X50200000Y-99850000D01*
X50840000Y-99450000D02*
X50200000Y-99450000D01*
X54059000Y-103855000D02*
X53931000Y-103726000D01*
X56275000Y-106070000D02*
X56181000Y-105976000D01*
X53819000Y-104025000D02*
X53726000Y-103931000D01*
X56069000Y-106275000D02*
X55941000Y-106146000D01*
X58160000Y-106810000D02*
X50440000Y-106810000D01*
X58160000Y-99690000D02*
X50440000Y-99690000D01*
X50440000Y-99690000D02*
X50440000Y-106810000D01*
X58160000Y-99690000D02*
X58160000Y-106810000D01*
X52000000Y-99690000D02*
X52000000Y-106810000D01*
X50900000Y-99690000D02*
X50900000Y-106810000D01*
X56680000Y-105000000D02*
G75*
G03X56680000Y-105000000I-1680000J0D01*
G01*
X53319901Y-101528674D02*
G75*
G02X53560000Y-100634000I1680099J28674D01*
G01*
X54110106Y-100074642D02*
G75*
G02X55866000Y-100060000I889894J-1425358D01*
G01*
X56425358Y-100610106D02*
G75*
G02X56440000Y-102366000I-1425358J-889894D01*
G01*
X55890193Y-102925505D02*
G75*
G02X54109000Y-102925000I-890193J1425505D01*
G01*
X53575279Y-102390264D02*
G75*
G02X53320000Y-101500000I1424721J890264D01*
G01*
X50200000Y-92450000D02*
X50200000Y-92850000D01*
X50840000Y-92450000D02*
X50200000Y-92450000D01*
X54059000Y-96855000D02*
X53931000Y-96726000D01*
X56275000Y-99070000D02*
X56181000Y-98976000D01*
X53819000Y-97025000D02*
X53726000Y-96931000D01*
X56069000Y-99275000D02*
X55941000Y-99146000D01*
X58160000Y-99810000D02*
X50440000Y-99810000D01*
X58160000Y-92690000D02*
X50440000Y-92690000D01*
X50440000Y-92690000D02*
X50440000Y-99810000D01*
X58160000Y-92690000D02*
X58160000Y-99810000D01*
X52000000Y-92690000D02*
X52000000Y-99810000D01*
X50900000Y-92690000D02*
X50900000Y-99810000D01*
X56680000Y-98000000D02*
G75*
G03X56680000Y-98000000I-1680000J0D01*
G01*
X53319901Y-94528674D02*
G75*
G02X53560000Y-93634000I1680099J28674D01*
G01*
X54110106Y-93074642D02*
G75*
G02X55866000Y-93060000I889894J-1425358D01*
G01*
X56425358Y-93610106D02*
G75*
G02X56440000Y-95366000I-1425358J-889894D01*
G01*
X55890193Y-95925505D02*
G75*
G02X54109000Y-95925000I-890193J1425505D01*
G01*
X53575279Y-95390264D02*
G75*
G02X53320000Y-94500000I1424721J890264D01*
G01*
X131239000Y-99110000D02*
X131239000Y-100440000D01*
X129909000Y-99110000D02*
X131239000Y-99110000D01*
X128639000Y-99110000D02*
X128639000Y-101770000D01*
X128639000Y-101770000D02*
X120959000Y-101770000D01*
X128639000Y-99110000D02*
X120959000Y-99110000D01*
X120959000Y-99110000D02*
X120959000Y-101770000D01*
X59950000Y-149800000D02*
X60350000Y-149800000D01*
X59950000Y-149160000D02*
X59950000Y-149800000D01*
X64355000Y-145941000D02*
X64226000Y-146069000D01*
X66570000Y-143725000D02*
X66476000Y-143819000D01*
X64525000Y-146181000D02*
X64431000Y-146274000D01*
X66775000Y-143931000D02*
X66646000Y-144059000D01*
X67310000Y-141840000D02*
X67310000Y-149560000D01*
X60190000Y-141840000D02*
X60190000Y-149560000D01*
X60190000Y-149560000D02*
X67310000Y-149560000D01*
X60190000Y-141840000D02*
X67310000Y-141840000D01*
X60190000Y-148000000D02*
X67310000Y-148000000D01*
X60190000Y-149100000D02*
X67310000Y-149100000D01*
X67180000Y-145000000D02*
G75*
G03X67180000Y-145000000I-1680000J0D01*
G01*
X62028674Y-146680099D02*
G75*
G02X61134000Y-146440000I-28674J1680099D01*
G01*
X60574642Y-145889894D02*
G75*
G02X60560000Y-144134000I1425358J889894D01*
G01*
X61110106Y-143574642D02*
G75*
G02X62866000Y-143560000I889894J-1425358D01*
G01*
X63425505Y-144109807D02*
G75*
G02X63425000Y-145891000I-1425505J-890193D01*
G01*
X62890264Y-146424721D02*
G75*
G02X62000000Y-146680000I-890264J1424721D01*
G01*
X66950000Y-149800000D02*
X67350000Y-149800000D01*
X66950000Y-149160000D02*
X66950000Y-149800000D01*
X71355000Y-145941000D02*
X71226000Y-146069000D01*
X73570000Y-143725000D02*
X73476000Y-143819000D01*
X71525000Y-146181000D02*
X71431000Y-146274000D01*
X73775000Y-143931000D02*
X73646000Y-144059000D01*
X74310000Y-141840000D02*
X74310000Y-149560000D01*
X67190000Y-141840000D02*
X67190000Y-149560000D01*
X67190000Y-149560000D02*
X74310000Y-149560000D01*
X67190000Y-141840000D02*
X74310000Y-141840000D01*
X67190000Y-148000000D02*
X74310000Y-148000000D01*
X67190000Y-149100000D02*
X74310000Y-149100000D01*
X74180000Y-145000000D02*
G75*
G03X74180000Y-145000000I-1680000J0D01*
G01*
X69028674Y-146680099D02*
G75*
G02X68134000Y-146440000I-28674J1680099D01*
G01*
X67574642Y-145889894D02*
G75*
G02X67560000Y-144134000I1425358J889894D01*
G01*
X68110106Y-143574642D02*
G75*
G02X69866000Y-143560000I889894J-1425358D01*
G01*
X70425505Y-144109807D02*
G75*
G02X70425000Y-145891000I-1425505J-890193D01*
G01*
X69890264Y-146424721D02*
G75*
G02X69000000Y-146680000I-890264J1424721D01*
G01*
X120959000Y-130980000D02*
X120959000Y-129650000D01*
X122289000Y-130980000D02*
X120959000Y-130980000D01*
X123559000Y-130980000D02*
X123559000Y-128320000D01*
X123559000Y-128320000D02*
X126159000Y-128320000D01*
X123559000Y-130980000D02*
X126159000Y-130980000D01*
X126159000Y-130980000D02*
X126159000Y-128320000D01*
X136049000Y-105830000D02*
X137299000Y-105830000D01*
X136049000Y-104580000D02*
X136049000Y-105830000D01*
X141549000Y-93680000D02*
X141549000Y-99230000D01*
X138599000Y-93680000D02*
X141549000Y-93680000D01*
X138599000Y-92930000D02*
X138599000Y-93680000D01*
X141549000Y-104780000D02*
X141549000Y-99230000D01*
X138599000Y-104780000D02*
X141549000Y-104780000D01*
X138599000Y-105530000D02*
X138599000Y-104780000D01*
X136349000Y-92930000D02*
X136349000Y-94730000D01*
X137099000Y-92930000D02*
X136349000Y-92930000D01*
X137099000Y-94730000D02*
X137099000Y-92930000D01*
X136349000Y-94730000D02*
X137099000Y-94730000D01*
X136349000Y-103730000D02*
X136349000Y-105530000D01*
X137099000Y-103730000D02*
X136349000Y-103730000D01*
X137099000Y-105530000D02*
X137099000Y-103730000D01*
X136349000Y-105530000D02*
X137099000Y-105530000D01*
X136349000Y-96230000D02*
X136349000Y-102230000D01*
X137099000Y-96230000D02*
X136349000Y-96230000D01*
X137099000Y-102230000D02*
X137099000Y-96230000D01*
X136349000Y-102230000D02*
X137099000Y-102230000D01*
X136339000Y-92920000D02*
X136339000Y-105540000D01*
X142309000Y-92920000D02*
X136339000Y-92920000D01*
X142309000Y-105540000D02*
X142309000Y-92920000D01*
X136339000Y-105540000D02*
X142309000Y-105540000D01*
X131239000Y-120065000D02*
X131239000Y-121395000D01*
X129909000Y-120065000D02*
X131239000Y-120065000D01*
X128639000Y-120065000D02*
X128639000Y-122725000D01*
X128639000Y-122725000D02*
X120959000Y-122725000D01*
X128639000Y-120065000D02*
X120959000Y-120065000D01*
X120959000Y-120065000D02*
X120959000Y-122725000D01*
X120959000Y-89070000D02*
X120959000Y-87740000D01*
X122289000Y-89070000D02*
X120959000Y-89070000D01*
X123559000Y-89070000D02*
X123559000Y-86410000D01*
X123559000Y-86410000D02*
X126159000Y-86410000D01*
X123559000Y-89070000D02*
X126159000Y-89070000D01*
X126159000Y-89070000D02*
X126159000Y-86410000D01*
X84145000Y-96945000D02*
X84145000Y-98195000D01*
X85395000Y-96945000D02*
X84145000Y-96945000D01*
X93795000Y-102445000D02*
X89495000Y-102445000D01*
X93795000Y-99495000D02*
X93795000Y-102445000D01*
X94545000Y-99495000D02*
X93795000Y-99495000D01*
X89495000Y-102445000D02*
X86255000Y-102445000D01*
X85195000Y-99495000D02*
X85195000Y-100835000D01*
X84445000Y-99495000D02*
X85195000Y-99495000D01*
X94545000Y-97245000D02*
X92745000Y-97245000D01*
X94545000Y-97995000D02*
X94545000Y-97245000D01*
X92745000Y-97995000D02*
X94545000Y-97995000D01*
X92745000Y-97245000D02*
X92745000Y-97995000D01*
X86245000Y-97245000D02*
X84445000Y-97245000D01*
X86245000Y-97995000D02*
X86245000Y-97245000D01*
X84445000Y-97995000D02*
X86245000Y-97995000D01*
X84445000Y-97245000D02*
X84445000Y-97995000D01*
X91245000Y-97245000D02*
X87745000Y-97245000D01*
X91245000Y-97995000D02*
X91245000Y-97245000D01*
X87745000Y-97995000D02*
X91245000Y-97995000D01*
X87745000Y-97245000D02*
X87745000Y-97995000D01*
X94555000Y-97235000D02*
X84435000Y-97235000D01*
X94555000Y-103205000D02*
X94555000Y-97235000D01*
X84435000Y-103205000D02*
X94555000Y-103205000D01*
X84435000Y-97235000D02*
X84435000Y-103205000D01*
X84145000Y-103295000D02*
X84145000Y-104545000D01*
X85395000Y-103295000D02*
X84145000Y-103295000D01*
X93795000Y-108795000D02*
X89495000Y-108795000D01*
X93795000Y-105845000D02*
X93795000Y-108795000D01*
X94545000Y-105845000D02*
X93795000Y-105845000D01*
X89495000Y-108795000D02*
X86255000Y-108795000D01*
X85195000Y-105845000D02*
X85195000Y-107185000D01*
X84445000Y-105845000D02*
X85195000Y-105845000D01*
X94545000Y-103595000D02*
X92745000Y-103595000D01*
X94545000Y-104345000D02*
X94545000Y-103595000D01*
X92745000Y-104345000D02*
X94545000Y-104345000D01*
X92745000Y-103595000D02*
X92745000Y-104345000D01*
X86245000Y-103595000D02*
X84445000Y-103595000D01*
X86245000Y-104345000D02*
X86245000Y-103595000D01*
X84445000Y-104345000D02*
X86245000Y-104345000D01*
X84445000Y-103595000D02*
X84445000Y-104345000D01*
X91245000Y-103595000D02*
X87745000Y-103595000D01*
X91245000Y-104345000D02*
X91245000Y-103595000D01*
X87745000Y-104345000D02*
X91245000Y-104345000D01*
X87745000Y-103595000D02*
X87745000Y-104345000D01*
X94555000Y-103585000D02*
X84435000Y-103585000D01*
X94555000Y-109555000D02*
X94555000Y-103585000D01*
X84435000Y-109555000D02*
X94555000Y-109555000D01*
X84435000Y-103585000D02*
X84435000Y-109555000D01*
X84145000Y-109645000D02*
X84145000Y-110895000D01*
X85395000Y-109645000D02*
X84145000Y-109645000D01*
X93795000Y-115145000D02*
X89495000Y-115145000D01*
X93795000Y-112195000D02*
X93795000Y-115145000D01*
X94545000Y-112195000D02*
X93795000Y-112195000D01*
X89495000Y-115145000D02*
X86255000Y-115145000D01*
X85195000Y-112195000D02*
X85195000Y-113535000D01*
X84445000Y-112195000D02*
X85195000Y-112195000D01*
X94545000Y-109945000D02*
X92745000Y-109945000D01*
X94545000Y-110695000D02*
X94545000Y-109945000D01*
X92745000Y-110695000D02*
X94545000Y-110695000D01*
X92745000Y-109945000D02*
X92745000Y-110695000D01*
X86245000Y-109945000D02*
X84445000Y-109945000D01*
X86245000Y-110695000D02*
X86245000Y-109945000D01*
X84445000Y-110695000D02*
X86245000Y-110695000D01*
X84445000Y-109945000D02*
X84445000Y-110695000D01*
X91245000Y-109945000D02*
X87745000Y-109945000D01*
X91245000Y-110695000D02*
X91245000Y-109945000D01*
X87745000Y-110695000D02*
X91245000Y-110695000D01*
X87745000Y-109945000D02*
X87745000Y-110695000D01*
X94555000Y-109935000D02*
X84435000Y-109935000D01*
X94555000Y-115905000D02*
X94555000Y-109935000D01*
X84435000Y-115905000D02*
X94555000Y-115905000D01*
X84435000Y-109935000D02*
X84435000Y-115905000D01*
X120959000Y-110025000D02*
X120959000Y-108695000D01*
X122289000Y-110025000D02*
X120959000Y-110025000D01*
X123559000Y-110025000D02*
X123559000Y-107365000D01*
X123559000Y-107365000D02*
X126159000Y-107365000D01*
X123559000Y-110025000D02*
X126159000Y-110025000D01*
X126159000Y-110025000D02*
X126159000Y-107365000D01*
X60425000Y-139785000D02*
X60425000Y-137325000D01*
X58955000Y-139785000D02*
X60425000Y-139785000D01*
X58955000Y-137325000D02*
X58955000Y-139785000D01*
X60425000Y-132535000D02*
X60425000Y-130075000D01*
X58955000Y-132535000D02*
X60425000Y-132535000D01*
X58955000Y-130075000D02*
X58955000Y-132535000D01*
X60425000Y-125785000D02*
X60425000Y-123325000D01*
X58955000Y-125785000D02*
X60425000Y-125785000D01*
X58955000Y-123325000D02*
X58955000Y-125785000D01*
X60425000Y-118785000D02*
X60425000Y-116325000D01*
X58955000Y-118785000D02*
X60425000Y-118785000D01*
X58955000Y-116325000D02*
X58955000Y-118785000D01*
X60425000Y-111785000D02*
X60425000Y-109325000D01*
X58955000Y-111785000D02*
X60425000Y-111785000D01*
X58955000Y-109325000D02*
X58955000Y-111785000D01*
X60425000Y-104655000D02*
X60425000Y-102195000D01*
X58955000Y-104655000D02*
X60425000Y-104655000D01*
X58955000Y-102195000D02*
X58955000Y-104655000D01*
X134479000Y-103838733D02*
X134479000Y-104181267D01*
X135499000Y-103838733D02*
X135499000Y-104181267D01*
X129610250Y-89886250D02*
X128822750Y-89886250D01*
X129216500Y-89492500D02*
X129216500Y-90280000D01*
X125023437Y-90520000D02*
X123959000Y-91584437D01*
X129714563Y-90520000D02*
X130779000Y-91584437D01*
X129714563Y-90520000D02*
X128429000Y-90520000D01*
X125023437Y-90520000D02*
X126309000Y-90520000D01*
X123959000Y-91584437D02*
X123959000Y-97340000D01*
X130779000Y-91584437D02*
X130779000Y-97340000D01*
X130779000Y-97340000D02*
X128429000Y-97340000D01*
X123959000Y-97340000D02*
X126309000Y-97340000D01*
X140000267Y-87501000D02*
X139657733Y-87501000D01*
X140000267Y-88521000D02*
X139657733Y-88521000D01*
X118349000Y-106920000D02*
X131179000Y-106920000D01*
X118349000Y-86340000D02*
X118349000Y-106920000D01*
X133849000Y-86340000D02*
X118349000Y-86340000D01*
X133849000Y-104250000D02*
X133849000Y-86340000D01*
X131179000Y-104250000D02*
X133849000Y-104250000D01*
X131179000Y-106920000D02*
X131179000Y-104250000D01*
X133849000Y-106920000D02*
X133849000Y-105520000D01*
X132449000Y-106920000D02*
X133849000Y-106920000D01*
X131179000Y-104250000D02*
X131179000Y-86340000D01*
X121019000Y-106920000D02*
X121019000Y-86340000D01*
X76423733Y-123630000D02*
X76766267Y-123630000D01*
X76423733Y-122610000D02*
X76766267Y-122610000D01*
X76423733Y-118980000D02*
X76766267Y-118980000D01*
X76423733Y-117960000D02*
X76766267Y-117960000D01*
X118349000Y-148830000D02*
X131179000Y-148830000D01*
X118349000Y-128250000D02*
X118349000Y-148830000D01*
X133849000Y-128250000D02*
X118349000Y-128250000D01*
X133849000Y-146160000D02*
X133849000Y-128250000D01*
X131179000Y-146160000D02*
X133849000Y-146160000D01*
X131179000Y-148830000D02*
X131179000Y-146160000D01*
X133849000Y-148830000D02*
X133849000Y-147430000D01*
X132449000Y-148830000D02*
X133849000Y-148830000D01*
X131179000Y-146160000D02*
X131179000Y-128250000D01*
X121019000Y-148830000D02*
X121019000Y-128250000D01*
X140000267Y-107821000D02*
X139657733Y-107821000D01*
X140000267Y-108841000D02*
X139657733Y-108841000D01*
X62470000Y-85924000D02*
X62470000Y-87164000D01*
X63710000Y-85924000D02*
X62470000Y-85924000D01*
X71330000Y-97885000D02*
X62710000Y-97885000D01*
X71330000Y-86164000D02*
X62710000Y-86164000D01*
X62710000Y-86164000D02*
X62710000Y-97885000D01*
X71330000Y-86164000D02*
X71330000Y-97885000D01*
X138459000Y-109275000D02*
X135459000Y-109275000D01*
X139459000Y-112515000D02*
X137459000Y-112515000D01*
X76423733Y-120480000D02*
X76766267Y-120480000D01*
X76423733Y-119460000D02*
X76766267Y-119460000D01*
X68580000Y-108714000D02*
G75*
G03X68580000Y-108714000I-635000J0D01*
G01*
X69364903Y-108714000D02*
G75*
G03X69364903Y-108714000I-1419903J0D01*
G01*
X73181344Y-108714000D02*
G75*
G03X73181344Y-108714000I-5236344J0D01*
G01*
X73015000Y-113824000D02*
X63675000Y-113824000D01*
X73015000Y-103604000D02*
X73015000Y-113824000D01*
X62875000Y-103604000D02*
X73015000Y-103604000D01*
X62875000Y-113024000D02*
X62875000Y-103604000D01*
X63675000Y-113824000D02*
X62875000Y-113024000D01*
X68580000Y-130050000D02*
G75*
G03X68580000Y-130050000I-635000J0D01*
G01*
X69364903Y-130050000D02*
G75*
G03X69364903Y-130050000I-1419903J0D01*
G01*
X73181344Y-130050000D02*
G75*
G03X73181344Y-130050000I-5236344J0D01*
G01*
X73015000Y-135160000D02*
X63675000Y-135160000D01*
X73015000Y-124940000D02*
X73015000Y-135160000D01*
X62875000Y-124940000D02*
X73015000Y-124940000D01*
X62875000Y-134360000D02*
X62875000Y-124940000D01*
X63675000Y-135160000D02*
X62875000Y-134360000D01*
X136049000Y-147740000D02*
X137299000Y-147740000D01*
X136049000Y-146490000D02*
X136049000Y-147740000D01*
X141549000Y-135590000D02*
X141549000Y-141140000D01*
X138599000Y-135590000D02*
X141549000Y-135590000D01*
X138599000Y-134840000D02*
X138599000Y-135590000D01*
X141549000Y-146690000D02*
X141549000Y-141140000D01*
X138599000Y-146690000D02*
X141549000Y-146690000D01*
X138599000Y-147440000D02*
X138599000Y-146690000D01*
X136349000Y-134840000D02*
X136349000Y-136640000D01*
X137099000Y-134840000D02*
X136349000Y-134840000D01*
X137099000Y-136640000D02*
X137099000Y-134840000D01*
X136349000Y-136640000D02*
X137099000Y-136640000D01*
X136349000Y-145640000D02*
X136349000Y-147440000D01*
X137099000Y-145640000D02*
X136349000Y-145640000D01*
X137099000Y-147440000D02*
X137099000Y-145640000D01*
X136349000Y-147440000D02*
X137099000Y-147440000D01*
X136349000Y-138140000D02*
X136349000Y-144140000D01*
X137099000Y-138140000D02*
X136349000Y-138140000D01*
X137099000Y-144140000D02*
X137099000Y-138140000D01*
X136349000Y-144140000D02*
X137099000Y-144140000D01*
X136339000Y-134830000D02*
X136339000Y-147450000D01*
X142309000Y-134830000D02*
X136339000Y-134830000D01*
X142309000Y-147450000D02*
X142309000Y-134830000D01*
X136339000Y-147450000D02*
X142309000Y-147450000D01*
X129610250Y-131796250D02*
X128822750Y-131796250D01*
X129216500Y-131402500D02*
X129216500Y-132190000D01*
X125023437Y-132430000D02*
X123959000Y-133494437D01*
X129714563Y-132430000D02*
X130779000Y-133494437D01*
X129714563Y-132430000D02*
X128429000Y-132430000D01*
X125023437Y-132430000D02*
X126309000Y-132430000D01*
X123959000Y-133494437D02*
X123959000Y-139250000D01*
X130779000Y-133494437D02*
X130779000Y-139250000D01*
X130779000Y-139250000D02*
X128429000Y-139250000D01*
X123959000Y-139250000D02*
X126309000Y-139250000D01*
X59180000Y-92778733D02*
X59180000Y-93121267D01*
X60200000Y-92778733D02*
X60200000Y-93121267D01*
X76766267Y-116460000D02*
X76423733Y-116460000D01*
X76766267Y-117480000D02*
X76423733Y-117480000D01*
X76766267Y-121110000D02*
X76423733Y-121110000D01*
X76766267Y-122130000D02*
X76423733Y-122130000D01*
X60425000Y-97785000D02*
X60425000Y-95325000D01*
X58955000Y-97785000D02*
X60425000Y-97785000D01*
X58955000Y-95325000D02*
X58955000Y-97785000D01*
X67787733Y-141099000D02*
X68130267Y-141099000D01*
X67787733Y-140079000D02*
X68130267Y-140079000D01*
D10*
X94480142Y-137198380D02*
X94146809Y-136722190D01*
X93908714Y-137198380D02*
X93908714Y-136198380D01*
X94289666Y-136198380D01*
X94384904Y-136246000D01*
X94432523Y-136293619D01*
X94480142Y-136388857D01*
X94480142Y-136531714D01*
X94432523Y-136626952D01*
X94384904Y-136674571D01*
X94289666Y-136722190D01*
X93908714Y-136722190D01*
X95432523Y-137198380D02*
X94861095Y-137198380D01*
X95146809Y-137198380D02*
X95146809Y-136198380D01*
X95051571Y-136341238D01*
X94956333Y-136436476D01*
X94861095Y-136484095D01*
X96003952Y-136626952D02*
X95908714Y-136579333D01*
X95861095Y-136531714D01*
X95813476Y-136436476D01*
X95813476Y-136388857D01*
X95861095Y-136293619D01*
X95908714Y-136246000D01*
X96003952Y-136198380D01*
X96194428Y-136198380D01*
X96289666Y-136246000D01*
X96337285Y-136293619D01*
X96384904Y-136388857D01*
X96384904Y-136436476D01*
X96337285Y-136531714D01*
X96289666Y-136579333D01*
X96194428Y-136626952D01*
X96003952Y-136626952D01*
X95908714Y-136674571D01*
X95861095Y-136722190D01*
X95813476Y-136817428D01*
X95813476Y-137007904D01*
X95861095Y-137103142D01*
X95908714Y-137150761D01*
X96003952Y-137198380D01*
X96194428Y-137198380D01*
X96289666Y-137150761D01*
X96337285Y-137103142D01*
X96384904Y-137007904D01*
X96384904Y-136817428D01*
X96337285Y-136722190D01*
X96289666Y-136674571D01*
X96194428Y-136626952D01*
X76428333Y-123547142D02*
X76380714Y-123594761D01*
X76237857Y-123642380D01*
X76142619Y-123642380D01*
X75999761Y-123594761D01*
X75904523Y-123499523D01*
X75856904Y-123404285D01*
X75809285Y-123213809D01*
X75809285Y-123070952D01*
X75856904Y-122880476D01*
X75904523Y-122785238D01*
X75999761Y-122690000D01*
X76142619Y-122642380D01*
X76237857Y-122642380D01*
X76380714Y-122690000D01*
X76428333Y-122737619D01*
X77333095Y-122642380D02*
X76856904Y-122642380D01*
X76809285Y-123118571D01*
X76856904Y-123070952D01*
X76952142Y-123023333D01*
X77190238Y-123023333D01*
X77285476Y-123070952D01*
X77333095Y-123118571D01*
X77380714Y-123213809D01*
X77380714Y-123451904D01*
X77333095Y-123547142D01*
X77285476Y-123594761D01*
X77190238Y-123642380D01*
X76952142Y-123642380D01*
X76856904Y-123594761D01*
X76809285Y-123547142D01*
X84241666Y-95992380D02*
X84241666Y-96706666D01*
X84194047Y-96849523D01*
X84098809Y-96944761D01*
X83955952Y-96992380D01*
X83860714Y-96992380D01*
X85241666Y-96992380D02*
X84670238Y-96992380D01*
X84955952Y-96992380D02*
X84955952Y-95992380D01*
X84860714Y-96135238D01*
X84765476Y-96230476D01*
X84670238Y-96278095D01*
X93051380Y-131111523D02*
X93765666Y-131111523D01*
X93908523Y-131159142D01*
X94003761Y-131254380D01*
X94051380Y-131397238D01*
X94051380Y-131492476D01*
X93051380Y-130730571D02*
X93051380Y-130111523D01*
X93432333Y-130444857D01*
X93432333Y-130302000D01*
X93479952Y-130206761D01*
X93527571Y-130159142D01*
X93622809Y-130111523D01*
X93860904Y-130111523D01*
X93956142Y-130159142D01*
X94003761Y-130206761D01*
X94051380Y-130302000D01*
X94051380Y-130587714D01*
X94003761Y-130682952D01*
X93956142Y-130730571D01*
X94051380Y-129159142D02*
X94051380Y-129730571D01*
X94051380Y-129444857D02*
X93051380Y-129444857D01*
X93194238Y-129540095D01*
X93289476Y-129635333D01*
X93337095Y-129730571D01*
X58618571Y-86288571D02*
X58285238Y-86288571D01*
X58285238Y-86812380D02*
X58285238Y-85812380D01*
X58761428Y-85812380D01*
X59142380Y-86812380D02*
X59142380Y-85812380D01*
X59618571Y-86812380D02*
X59618571Y-85812380D01*
X59856666Y-85812380D01*
X59999523Y-85860000D01*
X60094761Y-85955238D01*
X60142380Y-86050476D01*
X60190000Y-86240952D01*
X60190000Y-86383809D01*
X60142380Y-86574285D01*
X60094761Y-86669523D01*
X59999523Y-86764761D01*
X59856666Y-86812380D01*
X59618571Y-86812380D01*
X60523333Y-85812380D02*
X61142380Y-85812380D01*
X60809047Y-86193333D01*
X60951904Y-86193333D01*
X61047142Y-86240952D01*
X61094761Y-86288571D01*
X61142380Y-86383809D01*
X61142380Y-86621904D01*
X61094761Y-86717142D01*
X61047142Y-86764761D01*
X60951904Y-86812380D01*
X60666190Y-86812380D01*
X60570952Y-86764761D01*
X60523333Y-86717142D01*
X108928571Y-93908571D02*
X108595238Y-93908571D01*
X108595238Y-94432380D02*
X108595238Y-93432380D01*
X109071428Y-93432380D01*
X109452380Y-94432380D02*
X109452380Y-93432380D01*
X109928571Y-94432380D02*
X109928571Y-93432380D01*
X110166666Y-93432380D01*
X110309523Y-93480000D01*
X110404761Y-93575238D01*
X110452380Y-93670476D01*
X110500000Y-93860952D01*
X110500000Y-94003809D01*
X110452380Y-94194285D01*
X110404761Y-94289523D01*
X110309523Y-94384761D01*
X110166666Y-94432380D01*
X109928571Y-94432380D01*
X110880952Y-93527619D02*
X110928571Y-93480000D01*
X111023809Y-93432380D01*
X111261904Y-93432380D01*
X111357142Y-93480000D01*
X111404761Y-93527619D01*
X111452380Y-93622857D01*
X111452380Y-93718095D01*
X111404761Y-93860952D01*
X110833333Y-94432380D01*
X111452380Y-94432380D01*
X81224571Y-148008031D02*
X80891238Y-148008031D01*
X80891238Y-148531840D02*
X80891238Y-147531840D01*
X81367428Y-147531840D01*
X81748380Y-148531840D02*
X81748380Y-147531840D01*
X82224571Y-148531840D02*
X82224571Y-147531840D01*
X82462666Y-147531840D01*
X82605523Y-147579460D01*
X82700761Y-147674698D01*
X82748380Y-147769936D01*
X82796000Y-147960412D01*
X82796000Y-148103269D01*
X82748380Y-148293745D01*
X82700761Y-148388983D01*
X82605523Y-148484221D01*
X82462666Y-148531840D01*
X82224571Y-148531840D01*
X83748380Y-148531840D02*
X83176952Y-148531840D01*
X83462666Y-148531840D02*
X83462666Y-147531840D01*
X83367428Y-147674698D01*
X83272190Y-147769936D01*
X83176952Y-147817555D01*
X94226142Y-143613142D02*
X94178523Y-143660761D01*
X94035666Y-143708380D01*
X93940428Y-143708380D01*
X93797571Y-143660761D01*
X93702333Y-143565523D01*
X93654714Y-143470285D01*
X93607095Y-143279809D01*
X93607095Y-143136952D01*
X93654714Y-142946476D01*
X93702333Y-142851238D01*
X93797571Y-142756000D01*
X93940428Y-142708380D01*
X94035666Y-142708380D01*
X94178523Y-142756000D01*
X94226142Y-142803619D01*
X95178523Y-143708380D02*
X94607095Y-143708380D01*
X94892809Y-143708380D02*
X94892809Y-142708380D01*
X94797571Y-142851238D01*
X94702333Y-142946476D01*
X94607095Y-142994095D01*
X96035666Y-142708380D02*
X95845190Y-142708380D01*
X95749952Y-142756000D01*
X95702333Y-142803619D01*
X95607095Y-142946476D01*
X95559476Y-143136952D01*
X95559476Y-143517904D01*
X95607095Y-143613142D01*
X95654714Y-143660761D01*
X95749952Y-143708380D01*
X95940428Y-143708380D01*
X96035666Y-143660761D01*
X96083285Y-143613142D01*
X96130904Y-143517904D01*
X96130904Y-143279809D01*
X96083285Y-143184571D01*
X96035666Y-143136952D01*
X95940428Y-143089333D01*
X95749952Y-143089333D01*
X95654714Y-143136952D01*
X95607095Y-143184571D01*
X95559476Y-143279809D01*
X65111333Y-119737142D02*
X65063714Y-119784761D01*
X64920857Y-119832380D01*
X64825619Y-119832380D01*
X64682761Y-119784761D01*
X64587523Y-119689523D01*
X64539904Y-119594285D01*
X64492285Y-119403809D01*
X64492285Y-119260952D01*
X64539904Y-119070476D01*
X64587523Y-118975238D01*
X64682761Y-118880000D01*
X64825619Y-118832380D01*
X64920857Y-118832380D01*
X65063714Y-118880000D01*
X65111333Y-118927619D01*
X65968476Y-119165714D02*
X65968476Y-119832380D01*
X65730380Y-118784761D02*
X65492285Y-119499047D01*
X66111333Y-119499047D01*
X79859142Y-122308857D02*
X79906761Y-122356476D01*
X79954380Y-122499333D01*
X79954380Y-122594571D01*
X79906761Y-122737428D01*
X79811523Y-122832666D01*
X79716285Y-122880285D01*
X79525809Y-122927904D01*
X79382952Y-122927904D01*
X79192476Y-122880285D01*
X79097238Y-122832666D01*
X79002000Y-122737428D01*
X78954380Y-122594571D01*
X78954380Y-122499333D01*
X79002000Y-122356476D01*
X79049619Y-122308857D01*
X79954380Y-121356476D02*
X79954380Y-121927904D01*
X79954380Y-121642190D02*
X78954380Y-121642190D01*
X79097238Y-121737428D01*
X79192476Y-121832666D01*
X79240095Y-121927904D01*
X78954380Y-120451714D02*
X78954380Y-120927904D01*
X79430571Y-120975523D01*
X79382952Y-120927904D01*
X79335333Y-120832666D01*
X79335333Y-120594571D01*
X79382952Y-120499333D01*
X79430571Y-120451714D01*
X79525809Y-120404095D01*
X79763904Y-120404095D01*
X79859142Y-120451714D01*
X79906761Y-120499333D01*
X79954380Y-120594571D01*
X79954380Y-120832666D01*
X79906761Y-120927904D01*
X79859142Y-120975523D01*
X83288142Y-125102857D02*
X83335761Y-125150476D01*
X83383380Y-125293333D01*
X83383380Y-125388571D01*
X83335761Y-125531428D01*
X83240523Y-125626666D01*
X83145285Y-125674285D01*
X82954809Y-125721904D01*
X82811952Y-125721904D01*
X82621476Y-125674285D01*
X82526238Y-125626666D01*
X82431000Y-125531428D01*
X82383380Y-125388571D01*
X82383380Y-125293333D01*
X82431000Y-125150476D01*
X82478619Y-125102857D01*
X83383380Y-124150476D02*
X83383380Y-124721904D01*
X83383380Y-124436190D02*
X82383380Y-124436190D01*
X82526238Y-124531428D01*
X82621476Y-124626666D01*
X82669095Y-124721904D01*
X82716714Y-123293333D02*
X83383380Y-123293333D01*
X82335761Y-123531428D02*
X83050047Y-123769523D01*
X83050047Y-123150476D01*
X93940380Y-119427523D02*
X94654666Y-119427523D01*
X94797523Y-119475142D01*
X94892761Y-119570380D01*
X94940380Y-119713238D01*
X94940380Y-119808476D01*
X94940380Y-118427523D02*
X94940380Y-118998952D01*
X94940380Y-118713238D02*
X93940380Y-118713238D01*
X94083238Y-118808476D01*
X94178476Y-118903714D01*
X94226095Y-118998952D01*
X94940380Y-117475142D02*
X94940380Y-118046571D01*
X94940380Y-117760857D02*
X93940380Y-117760857D01*
X94083238Y-117856095D01*
X94178476Y-117951333D01*
X94226095Y-118046571D01*
X93940380Y-121745333D02*
X94654666Y-121745333D01*
X94797523Y-121792952D01*
X94892761Y-121888190D01*
X94940380Y-122031047D01*
X94940380Y-122126285D01*
X93940380Y-121364380D02*
X93940380Y-120697714D01*
X94940380Y-121126285D01*
X96226380Y-148462904D02*
X97035904Y-148462904D01*
X97131142Y-148415285D01*
X97178761Y-148367666D01*
X97226380Y-148272428D01*
X97226380Y-148081952D01*
X97178761Y-147986714D01*
X97131142Y-147939095D01*
X97035904Y-147891476D01*
X96226380Y-147891476D01*
X96226380Y-146986714D02*
X96226380Y-147177190D01*
X96274000Y-147272428D01*
X96321619Y-147320047D01*
X96464476Y-147415285D01*
X96654952Y-147462904D01*
X97035904Y-147462904D01*
X97131142Y-147415285D01*
X97178761Y-147367666D01*
X97226380Y-147272428D01*
X97226380Y-147081952D01*
X97178761Y-146986714D01*
X97131142Y-146939095D01*
X97035904Y-146891476D01*
X96797809Y-146891476D01*
X96702571Y-146939095D01*
X96654952Y-146986714D01*
X96607333Y-147081952D01*
X96607333Y-147272428D01*
X96654952Y-147367666D01*
X96702571Y-147415285D01*
X96797809Y-147462904D01*
X108355580Y-139995323D02*
X109165104Y-139995323D01*
X109260342Y-139947704D01*
X109307961Y-139900085D01*
X109355580Y-139804847D01*
X109355580Y-139614371D01*
X109307961Y-139519133D01*
X109260342Y-139471514D01*
X109165104Y-139423895D01*
X108355580Y-139423895D01*
X109307961Y-138995323D02*
X109355580Y-138852466D01*
X109355580Y-138614371D01*
X109307961Y-138519133D01*
X109260342Y-138471514D01*
X109165104Y-138423895D01*
X109069866Y-138423895D01*
X108974628Y-138471514D01*
X108927009Y-138519133D01*
X108879390Y-138614371D01*
X108831771Y-138804847D01*
X108784152Y-138900085D01*
X108736533Y-138947704D01*
X108641295Y-138995323D01*
X108546057Y-138995323D01*
X108450819Y-138947704D01*
X108403200Y-138900085D01*
X108355580Y-138804847D01*
X108355580Y-138566752D01*
X108403200Y-138423895D01*
X108831771Y-137661990D02*
X108879390Y-137519133D01*
X108927009Y-137471514D01*
X109022247Y-137423895D01*
X109165104Y-137423895D01*
X109260342Y-137471514D01*
X109307961Y-137519133D01*
X109355580Y-137614371D01*
X109355580Y-137995323D01*
X108355580Y-137995323D01*
X108355580Y-137661990D01*
X108403200Y-137566752D01*
X108450819Y-137519133D01*
X108546057Y-137471514D01*
X108641295Y-137471514D01*
X108736533Y-137519133D01*
X108784152Y-137566752D01*
X108831771Y-137661990D01*
X108831771Y-137995323D01*
X109355580Y-136233419D02*
X108355580Y-136233419D01*
X108831771Y-136233419D02*
X108831771Y-135661990D01*
X109355580Y-135661990D02*
X108355580Y-135661990D01*
X109355580Y-135042942D02*
X109307961Y-135138180D01*
X109260342Y-135185800D01*
X109165104Y-135233419D01*
X108879390Y-135233419D01*
X108784152Y-135185800D01*
X108736533Y-135138180D01*
X108688914Y-135042942D01*
X108688914Y-134900085D01*
X108736533Y-134804847D01*
X108784152Y-134757228D01*
X108879390Y-134709609D01*
X109165104Y-134709609D01*
X109260342Y-134757228D01*
X109307961Y-134804847D01*
X109355580Y-134900085D01*
X109355580Y-135042942D01*
X109307961Y-134328657D02*
X109355580Y-134233419D01*
X109355580Y-134042942D01*
X109307961Y-133947704D01*
X109212723Y-133900085D01*
X109165104Y-133900085D01*
X109069866Y-133947704D01*
X109022247Y-134042942D01*
X109022247Y-134185800D01*
X108974628Y-134281038D01*
X108879390Y-134328657D01*
X108831771Y-134328657D01*
X108736533Y-134281038D01*
X108688914Y-134185800D01*
X108688914Y-134042942D01*
X108736533Y-133947704D01*
X108688914Y-133614371D02*
X108688914Y-133233419D01*
X108355580Y-133471514D02*
X109212723Y-133471514D01*
X109307961Y-133423895D01*
X109355580Y-133328657D01*
X109355580Y-133233419D01*
X100280257Y-130213571D02*
X100613590Y-130213571D01*
X100756447Y-130737380D02*
X100280257Y-130737380D01*
X100280257Y-129737380D01*
X100756447Y-129737380D01*
X101042161Y-130070714D02*
X101423114Y-130070714D01*
X101185019Y-129737380D02*
X101185019Y-130594523D01*
X101232638Y-130689761D01*
X101327876Y-130737380D01*
X101423114Y-130737380D01*
X101756447Y-130737380D02*
X101756447Y-129737380D01*
X102185019Y-130737380D02*
X102185019Y-130213571D01*
X102137400Y-130118333D01*
X102042161Y-130070714D01*
X101899304Y-130070714D01*
X101804066Y-130118333D01*
X101756447Y-130165952D01*
X103042161Y-130689761D02*
X102946923Y-130737380D01*
X102756447Y-130737380D01*
X102661209Y-130689761D01*
X102613590Y-130594523D01*
X102613590Y-130213571D01*
X102661209Y-130118333D01*
X102756447Y-130070714D01*
X102946923Y-130070714D01*
X103042161Y-130118333D01*
X103089780Y-130213571D01*
X103089780Y-130308809D01*
X102613590Y-130404047D01*
X103518352Y-130737380D02*
X103518352Y-130070714D01*
X103518352Y-130261190D02*
X103565971Y-130165952D01*
X103613590Y-130118333D01*
X103708828Y-130070714D01*
X103804066Y-130070714D01*
X104137400Y-130070714D02*
X104137400Y-130737380D01*
X104137400Y-130165952D02*
X104185019Y-130118333D01*
X104280257Y-130070714D01*
X104423114Y-130070714D01*
X104518352Y-130118333D01*
X104565971Y-130213571D01*
X104565971Y-130737380D01*
X105423114Y-130689761D02*
X105327876Y-130737380D01*
X105137400Y-130737380D01*
X105042161Y-130689761D01*
X104994542Y-130594523D01*
X104994542Y-130213571D01*
X105042161Y-130118333D01*
X105137400Y-130070714D01*
X105327876Y-130070714D01*
X105423114Y-130118333D01*
X105470733Y-130213571D01*
X105470733Y-130308809D01*
X104994542Y-130404047D01*
X105756447Y-130070714D02*
X106137400Y-130070714D01*
X105899304Y-129737380D02*
X105899304Y-130594523D01*
X105946923Y-130689761D01*
X106042161Y-130737380D01*
X106137400Y-130737380D01*
X105152095Y-144342380D02*
X105152095Y-145151904D01*
X105199714Y-145247142D01*
X105247333Y-145294761D01*
X105342571Y-145342380D01*
X105533047Y-145342380D01*
X105628285Y-145294761D01*
X105675904Y-145247142D01*
X105723523Y-145151904D01*
X105723523Y-144342380D01*
X106152095Y-145294761D02*
X106294952Y-145342380D01*
X106533047Y-145342380D01*
X106628285Y-145294761D01*
X106675904Y-145247142D01*
X106723523Y-145151904D01*
X106723523Y-145056666D01*
X106675904Y-144961428D01*
X106628285Y-144913809D01*
X106533047Y-144866190D01*
X106342571Y-144818571D01*
X106247333Y-144770952D01*
X106199714Y-144723333D01*
X106152095Y-144628095D01*
X106152095Y-144532857D01*
X106199714Y-144437619D01*
X106247333Y-144390000D01*
X106342571Y-144342380D01*
X106580666Y-144342380D01*
X106723523Y-144390000D01*
X107485428Y-144818571D02*
X107628285Y-144866190D01*
X107675904Y-144913809D01*
X107723523Y-145009047D01*
X107723523Y-145151904D01*
X107675904Y-145247142D01*
X107628285Y-145294761D01*
X107533047Y-145342380D01*
X107152095Y-145342380D01*
X107152095Y-144342380D01*
X107485428Y-144342380D01*
X107580666Y-144390000D01*
X107628285Y-144437619D01*
X107675904Y-144532857D01*
X107675904Y-144628095D01*
X107628285Y-144723333D01*
X107580666Y-144770952D01*
X107485428Y-144818571D01*
X107152095Y-144818571D01*
X106866380Y-97209047D02*
X105866380Y-97209047D01*
X106580666Y-96875714D01*
X105866380Y-96542380D01*
X106866380Y-96542380D01*
X106866380Y-96066190D02*
X106199714Y-96066190D01*
X105866380Y-96066190D02*
X105914000Y-96113809D01*
X105961619Y-96066190D01*
X105914000Y-96018571D01*
X105866380Y-96066190D01*
X105961619Y-96066190D01*
X106818761Y-95161428D02*
X106866380Y-95256666D01*
X106866380Y-95447142D01*
X106818761Y-95542380D01*
X106771142Y-95590000D01*
X106675904Y-95637619D01*
X106390190Y-95637619D01*
X106294952Y-95590000D01*
X106247333Y-95542380D01*
X106199714Y-95447142D01*
X106199714Y-95256666D01*
X106247333Y-95161428D01*
X106866380Y-94732857D02*
X106199714Y-94732857D01*
X106390190Y-94732857D02*
X106294952Y-94685238D01*
X106247333Y-94637619D01*
X106199714Y-94542380D01*
X106199714Y-94447142D01*
X106866380Y-93970952D02*
X106818761Y-94066190D01*
X106771142Y-94113809D01*
X106675904Y-94161428D01*
X106390190Y-94161428D01*
X106294952Y-94113809D01*
X106247333Y-94066190D01*
X106199714Y-93970952D01*
X106199714Y-93828095D01*
X106247333Y-93732857D01*
X106294952Y-93685238D01*
X106390190Y-93637619D01*
X106675904Y-93637619D01*
X106771142Y-93685238D01*
X106818761Y-93732857D01*
X106866380Y-93828095D01*
X106866380Y-93970952D01*
X106818761Y-92494761D02*
X106866380Y-92351904D01*
X106866380Y-92113809D01*
X106818761Y-92018571D01*
X106771142Y-91970952D01*
X106675904Y-91923333D01*
X106580666Y-91923333D01*
X106485428Y-91970952D01*
X106437809Y-92018571D01*
X106390190Y-92113809D01*
X106342571Y-92304285D01*
X106294952Y-92399523D01*
X106247333Y-92447142D01*
X106152095Y-92494761D01*
X106056857Y-92494761D01*
X105961619Y-92447142D01*
X105914000Y-92399523D01*
X105866380Y-92304285D01*
X105866380Y-92066190D01*
X105914000Y-91923333D01*
X106866380Y-91494761D02*
X105866380Y-91494761D01*
X105866380Y-91256666D01*
X105914000Y-91113809D01*
X106009238Y-91018571D01*
X106104476Y-90970952D01*
X106294952Y-90923333D01*
X106437809Y-90923333D01*
X106628285Y-90970952D01*
X106723523Y-91018571D01*
X106818761Y-91113809D01*
X106866380Y-91256666D01*
X106866380Y-91494761D01*
X103330666Y-119806666D02*
X103330666Y-119106666D01*
X103564000Y-119606666D01*
X103797333Y-119106666D01*
X103797333Y-119806666D01*
X104130666Y-119806666D02*
X104130666Y-119106666D01*
X104464000Y-119806666D02*
X104464000Y-119106666D01*
X104697333Y-119606666D01*
X104930666Y-119106666D01*
X104930666Y-119806666D01*
X105197333Y-119106666D02*
X105664000Y-119806666D01*
X105664000Y-119106666D02*
X105197333Y-119806666D01*
X106330666Y-119806666D02*
X106097333Y-119473333D01*
X105930666Y-119806666D02*
X105930666Y-119106666D01*
X106197333Y-119106666D01*
X106264000Y-119140000D01*
X106297333Y-119173333D01*
X106330666Y-119240000D01*
X106330666Y-119340000D01*
X106297333Y-119406666D01*
X106264000Y-119440000D01*
X106197333Y-119473333D01*
X105930666Y-119473333D01*
X106530666Y-119106666D02*
X106930666Y-119106666D01*
X106730666Y-119806666D02*
X106730666Y-119106666D01*
X107530666Y-119806666D02*
X107130666Y-119806666D01*
X107330666Y-119806666D02*
X107330666Y-119106666D01*
X107264000Y-119206666D01*
X107197333Y-119273333D01*
X107130666Y-119306666D01*
X107964000Y-119106666D02*
X108030666Y-119106666D01*
X108097333Y-119140000D01*
X108130666Y-119173333D01*
X108164000Y-119240000D01*
X108197333Y-119373333D01*
X108197333Y-119540000D01*
X108164000Y-119673333D01*
X108130666Y-119740000D01*
X108097333Y-119773333D01*
X108030666Y-119806666D01*
X107964000Y-119806666D01*
X107897333Y-119773333D01*
X107864000Y-119740000D01*
X107830666Y-119673333D01*
X107797333Y-119540000D01*
X107797333Y-119373333D01*
X107830666Y-119240000D01*
X107864000Y-119173333D01*
X107897333Y-119140000D01*
X107964000Y-119106666D01*
X108797333Y-119106666D02*
X108664000Y-119106666D01*
X108597333Y-119140000D01*
X108564000Y-119173333D01*
X108497333Y-119273333D01*
X108464000Y-119406666D01*
X108464000Y-119673333D01*
X108497333Y-119740000D01*
X108530666Y-119773333D01*
X108597333Y-119806666D01*
X108730666Y-119806666D01*
X108797333Y-119773333D01*
X108830666Y-119740000D01*
X108864000Y-119673333D01*
X108864000Y-119506666D01*
X108830666Y-119440000D01*
X108797333Y-119406666D01*
X108730666Y-119373333D01*
X108597333Y-119373333D01*
X108530666Y-119406666D01*
X108497333Y-119440000D01*
X108464000Y-119506666D01*
X109130666Y-119173333D02*
X109164000Y-119140000D01*
X109230666Y-119106666D01*
X109397333Y-119106666D01*
X109464000Y-119140000D01*
X109497333Y-119173333D01*
X109530666Y-119240000D01*
X109530666Y-119306666D01*
X109497333Y-119406666D01*
X109097333Y-119806666D01*
X109530666Y-119806666D01*
X104850666Y-121076666D02*
X104850666Y-120376666D01*
X105017333Y-120376666D01*
X105117333Y-120410000D01*
X105184000Y-120476666D01*
X105217333Y-120543333D01*
X105250666Y-120676666D01*
X105250666Y-120776666D01*
X105217333Y-120910000D01*
X105184000Y-120976666D01*
X105117333Y-121043333D01*
X105017333Y-121076666D01*
X104850666Y-121076666D01*
X105450666Y-120376666D02*
X105684000Y-121076666D01*
X105917333Y-120376666D01*
X106350666Y-120376666D02*
X106350666Y-120876666D01*
X106317333Y-120976666D01*
X106250666Y-121043333D01*
X106150666Y-121076666D01*
X106084000Y-121076666D01*
X106984000Y-120376666D02*
X106850666Y-120376666D01*
X106784000Y-120410000D01*
X106750666Y-120443333D01*
X106684000Y-120543333D01*
X106650666Y-120676666D01*
X106650666Y-120943333D01*
X106684000Y-121010000D01*
X106717333Y-121043333D01*
X106784000Y-121076666D01*
X106917333Y-121076666D01*
X106984000Y-121043333D01*
X107017333Y-121010000D01*
X107050666Y-120943333D01*
X107050666Y-120776666D01*
X107017333Y-120710000D01*
X106984000Y-120676666D01*
X106917333Y-120643333D01*
X106784000Y-120643333D01*
X106717333Y-120676666D01*
X106684000Y-120710000D01*
X106650666Y-120776666D01*
X107317333Y-120876666D02*
X107650666Y-120876666D01*
X107250666Y-121076666D02*
X107484000Y-120376666D01*
X107717333Y-121076666D01*
X148169380Y-93297333D02*
X148883666Y-93297333D01*
X149026523Y-93344952D01*
X149121761Y-93440190D01*
X149169380Y-93583047D01*
X149169380Y-93678285D01*
X148502714Y-92392571D02*
X149169380Y-92392571D01*
X148121761Y-92630666D02*
X148836047Y-92868761D01*
X148836047Y-92249714D01*
X142327380Y-111458333D02*
X143041666Y-111458333D01*
X143184523Y-111505952D01*
X143279761Y-111601190D01*
X143327380Y-111744047D01*
X143327380Y-111839285D01*
X142327380Y-111077380D02*
X142327380Y-110458333D01*
X142708333Y-110791666D01*
X142708333Y-110648809D01*
X142755952Y-110553571D01*
X142803571Y-110505952D01*
X142898809Y-110458333D01*
X143136904Y-110458333D01*
X143232142Y-110505952D01*
X143279761Y-110553571D01*
X143327380Y-110648809D01*
X143327380Y-110934523D01*
X143279761Y-111029761D01*
X143232142Y-111077380D01*
X142073380Y-133429333D02*
X142787666Y-133429333D01*
X142930523Y-133476952D01*
X143025761Y-133572190D01*
X143073380Y-133715047D01*
X143073380Y-133810285D01*
X142168619Y-133000761D02*
X142121000Y-132953142D01*
X142073380Y-132857904D01*
X142073380Y-132619809D01*
X142121000Y-132524571D01*
X142168619Y-132476952D01*
X142263857Y-132429333D01*
X142359095Y-132429333D01*
X142501952Y-132476952D01*
X143073380Y-133048380D01*
X143073380Y-132429333D01*
X135358142Y-143168666D02*
X135405761Y-143216285D01*
X135453380Y-143359142D01*
X135453380Y-143454380D01*
X135405761Y-143597238D01*
X135310523Y-143692476D01*
X135215285Y-143740095D01*
X135024809Y-143787714D01*
X134881952Y-143787714D01*
X134691476Y-143740095D01*
X134596238Y-143692476D01*
X134501000Y-143597238D01*
X134453380Y-143454380D01*
X134453380Y-143359142D01*
X134501000Y-143216285D01*
X134548619Y-143168666D01*
X135453380Y-142692476D02*
X135453380Y-142502000D01*
X135405761Y-142406761D01*
X135358142Y-142359142D01*
X135215285Y-142263904D01*
X135024809Y-142216285D01*
X134643857Y-142216285D01*
X134548619Y-142263904D01*
X134501000Y-142311523D01*
X134453380Y-142406761D01*
X134453380Y-142597238D01*
X134501000Y-142692476D01*
X134548619Y-142740095D01*
X134643857Y-142787714D01*
X134881952Y-142787714D01*
X134977190Y-142740095D01*
X135024809Y-142692476D01*
X135072428Y-142597238D01*
X135072428Y-142406761D01*
X135024809Y-142311523D01*
X134977190Y-142263904D01*
X134881952Y-142216285D01*
X135358142Y-122054857D02*
X135405761Y-122102476D01*
X135453380Y-122245333D01*
X135453380Y-122340571D01*
X135405761Y-122483428D01*
X135310523Y-122578666D01*
X135215285Y-122626285D01*
X135024809Y-122673904D01*
X134881952Y-122673904D01*
X134691476Y-122626285D01*
X134596238Y-122578666D01*
X134501000Y-122483428D01*
X134453380Y-122340571D01*
X134453380Y-122245333D01*
X134501000Y-122102476D01*
X134548619Y-122054857D01*
X135453380Y-121102476D02*
X135453380Y-121673904D01*
X135453380Y-121388190D02*
X134453380Y-121388190D01*
X134596238Y-121483428D01*
X134691476Y-121578666D01*
X134739095Y-121673904D01*
X134453380Y-120483428D02*
X134453380Y-120388190D01*
X134501000Y-120292952D01*
X134548619Y-120245333D01*
X134643857Y-120197714D01*
X134834333Y-120150095D01*
X135072428Y-120150095D01*
X135262904Y-120197714D01*
X135358142Y-120245333D01*
X135405761Y-120292952D01*
X135453380Y-120388190D01*
X135453380Y-120483428D01*
X135405761Y-120578666D01*
X135358142Y-120626285D01*
X135262904Y-120673904D01*
X135072428Y-120721523D01*
X134834333Y-120721523D01*
X134643857Y-120673904D01*
X134548619Y-120626285D01*
X134501000Y-120578666D01*
X134453380Y-120483428D01*
X134580380Y-117935333D02*
X135294666Y-117935333D01*
X135437523Y-117982952D01*
X135532761Y-118078190D01*
X135580380Y-118221047D01*
X135580380Y-118316285D01*
X134580380Y-117030571D02*
X134580380Y-117221047D01*
X134628000Y-117316285D01*
X134675619Y-117363904D01*
X134818476Y-117459142D01*
X135008952Y-117506761D01*
X135389904Y-117506761D01*
X135485142Y-117459142D01*
X135532761Y-117411523D01*
X135580380Y-117316285D01*
X135580380Y-117125809D01*
X135532761Y-117030571D01*
X135485142Y-116982952D01*
X135389904Y-116935333D01*
X135151809Y-116935333D01*
X135056571Y-116982952D01*
X135008952Y-117030571D01*
X134961333Y-117125809D01*
X134961333Y-117316285D01*
X135008952Y-117411523D01*
X135056571Y-117459142D01*
X135151809Y-117506761D01*
X135636095Y-128230380D02*
X135636095Y-129039904D01*
X135683714Y-129135142D01*
X135731333Y-129182761D01*
X135826571Y-129230380D01*
X136017047Y-129230380D01*
X136112285Y-129182761D01*
X136159904Y-129135142D01*
X136207523Y-129039904D01*
X136207523Y-128230380D01*
X137207523Y-129230380D02*
X136636095Y-129230380D01*
X136921809Y-129230380D02*
X136921809Y-128230380D01*
X136826571Y-128373238D01*
X136731333Y-128468476D01*
X136636095Y-128516095D01*
X123420142Y-117641666D02*
X123467761Y-117689285D01*
X123515380Y-117832142D01*
X123515380Y-117927380D01*
X123467761Y-118070238D01*
X123372523Y-118165476D01*
X123277285Y-118213095D01*
X123086809Y-118260714D01*
X122943952Y-118260714D01*
X122753476Y-118213095D01*
X122658238Y-118165476D01*
X122563000Y-118070238D01*
X122515380Y-117927380D01*
X122515380Y-117832142D01*
X122563000Y-117689285D01*
X122610619Y-117641666D01*
X123515380Y-116689285D02*
X123515380Y-117260714D01*
X123515380Y-116975000D02*
X122515380Y-116975000D01*
X122658238Y-117070238D01*
X122753476Y-117165476D01*
X122801095Y-117260714D01*
X141438333Y-128246142D02*
X141390714Y-128293761D01*
X141247857Y-128341380D01*
X141152619Y-128341380D01*
X141009761Y-128293761D01*
X140914523Y-128198523D01*
X140866904Y-128103285D01*
X140819285Y-127912809D01*
X140819285Y-127769952D01*
X140866904Y-127579476D01*
X140914523Y-127484238D01*
X141009761Y-127389000D01*
X141152619Y-127341380D01*
X141247857Y-127341380D01*
X141390714Y-127389000D01*
X141438333Y-127436619D01*
X142009761Y-127769952D02*
X141914523Y-127722333D01*
X141866904Y-127674714D01*
X141819285Y-127579476D01*
X141819285Y-127531857D01*
X141866904Y-127436619D01*
X141914523Y-127389000D01*
X142009761Y-127341380D01*
X142200238Y-127341380D01*
X142295476Y-127389000D01*
X142343095Y-127436619D01*
X142390714Y-127531857D01*
X142390714Y-127579476D01*
X142343095Y-127674714D01*
X142295476Y-127722333D01*
X142200238Y-127769952D01*
X142009761Y-127769952D01*
X141914523Y-127817571D01*
X141866904Y-127865190D01*
X141819285Y-127960428D01*
X141819285Y-128150904D01*
X141866904Y-128246142D01*
X141914523Y-128293761D01*
X142009761Y-128341380D01*
X142200238Y-128341380D01*
X142295476Y-128293761D01*
X142343095Y-128246142D01*
X142390714Y-128150904D01*
X142390714Y-127960428D01*
X142343095Y-127865190D01*
X142295476Y-127817571D01*
X142200238Y-127769952D01*
X77408095Y-113302380D02*
X77408095Y-114111904D01*
X77455714Y-114207142D01*
X77503333Y-114254761D01*
X77598571Y-114302380D01*
X77789047Y-114302380D01*
X77884285Y-114254761D01*
X77931904Y-114207142D01*
X77979523Y-114111904D01*
X77979523Y-113302380D01*
X78598571Y-113730952D02*
X78503333Y-113683333D01*
X78455714Y-113635714D01*
X78408095Y-113540476D01*
X78408095Y-113492857D01*
X78455714Y-113397619D01*
X78503333Y-113350000D01*
X78598571Y-113302380D01*
X78789047Y-113302380D01*
X78884285Y-113350000D01*
X78931904Y-113397619D01*
X78979523Y-113492857D01*
X78979523Y-113540476D01*
X78931904Y-113635714D01*
X78884285Y-113683333D01*
X78789047Y-113730952D01*
X78598571Y-113730952D01*
X78503333Y-113778571D01*
X78455714Y-113826190D01*
X78408095Y-113921428D01*
X78408095Y-114111904D01*
X78455714Y-114207142D01*
X78503333Y-114254761D01*
X78598571Y-114302380D01*
X78789047Y-114302380D01*
X78884285Y-114254761D01*
X78931904Y-114207142D01*
X78979523Y-114111904D01*
X78979523Y-113921428D01*
X78931904Y-113826190D01*
X78884285Y-113778571D01*
X78789047Y-113730952D01*
X136779095Y-85939380D02*
X136779095Y-86748904D01*
X136826714Y-86844142D01*
X136874333Y-86891761D01*
X136969571Y-86939380D01*
X137160047Y-86939380D01*
X137255285Y-86891761D01*
X137302904Y-86844142D01*
X137350523Y-86748904D01*
X137350523Y-85939380D01*
X137731476Y-85939380D02*
X138350523Y-85939380D01*
X138017190Y-86320333D01*
X138160047Y-86320333D01*
X138255285Y-86367952D01*
X138302904Y-86415571D01*
X138350523Y-86510809D01*
X138350523Y-86748904D01*
X138302904Y-86844142D01*
X138255285Y-86891761D01*
X138160047Y-86939380D01*
X137874333Y-86939380D01*
X137779095Y-86891761D01*
X137731476Y-86844142D01*
X61572380Y-135530857D02*
X61096190Y-135864190D01*
X61572380Y-136102285D02*
X60572380Y-136102285D01*
X60572380Y-135721333D01*
X60620000Y-135626095D01*
X60667619Y-135578476D01*
X60762857Y-135530857D01*
X60905714Y-135530857D01*
X61000952Y-135578476D01*
X61048571Y-135626095D01*
X61096190Y-135721333D01*
X61096190Y-136102285D01*
X61572380Y-134578476D02*
X61572380Y-135149904D01*
X61572380Y-134864190D02*
X60572380Y-134864190D01*
X60715238Y-134959428D01*
X60810476Y-135054666D01*
X60858095Y-135149904D01*
X60572380Y-134245142D02*
X60572380Y-133578476D01*
X61572380Y-134007047D01*
X61572380Y-128291857D02*
X61096190Y-128625190D01*
X61572380Y-128863285D02*
X60572380Y-128863285D01*
X60572380Y-128482333D01*
X60620000Y-128387095D01*
X60667619Y-128339476D01*
X60762857Y-128291857D01*
X60905714Y-128291857D01*
X61000952Y-128339476D01*
X61048571Y-128387095D01*
X61096190Y-128482333D01*
X61096190Y-128863285D01*
X61572380Y-127339476D02*
X61572380Y-127910904D01*
X61572380Y-127625190D02*
X60572380Y-127625190D01*
X60715238Y-127720428D01*
X60810476Y-127815666D01*
X60858095Y-127910904D01*
X60572380Y-126482333D02*
X60572380Y-126672809D01*
X60620000Y-126768047D01*
X60667619Y-126815666D01*
X60810476Y-126910904D01*
X61000952Y-126958523D01*
X61381904Y-126958523D01*
X61477142Y-126910904D01*
X61524761Y-126863285D01*
X61572380Y-126768047D01*
X61572380Y-126577571D01*
X61524761Y-126482333D01*
X61477142Y-126434714D01*
X61381904Y-126387095D01*
X61143809Y-126387095D01*
X61048571Y-126434714D01*
X61000952Y-126482333D01*
X60953333Y-126577571D01*
X60953333Y-126768047D01*
X61000952Y-126863285D01*
X61048571Y-126910904D01*
X61143809Y-126958523D01*
X61572380Y-121560857D02*
X61096190Y-121894190D01*
X61572380Y-122132285D02*
X60572380Y-122132285D01*
X60572380Y-121751333D01*
X60620000Y-121656095D01*
X60667619Y-121608476D01*
X60762857Y-121560857D01*
X60905714Y-121560857D01*
X61000952Y-121608476D01*
X61048571Y-121656095D01*
X61096190Y-121751333D01*
X61096190Y-122132285D01*
X61572380Y-120608476D02*
X61572380Y-121179904D01*
X61572380Y-120894190D02*
X60572380Y-120894190D01*
X60715238Y-120989428D01*
X60810476Y-121084666D01*
X60858095Y-121179904D01*
X60572380Y-119703714D02*
X60572380Y-120179904D01*
X61048571Y-120227523D01*
X61000952Y-120179904D01*
X60953333Y-120084666D01*
X60953333Y-119846571D01*
X61000952Y-119751333D01*
X61048571Y-119703714D01*
X61143809Y-119656095D01*
X61381904Y-119656095D01*
X61477142Y-119703714D01*
X61524761Y-119751333D01*
X61572380Y-119846571D01*
X61572380Y-120084666D01*
X61524761Y-120179904D01*
X61477142Y-120227523D01*
X61572380Y-114575857D02*
X61096190Y-114909190D01*
X61572380Y-115147285D02*
X60572380Y-115147285D01*
X60572380Y-114766333D01*
X60620000Y-114671095D01*
X60667619Y-114623476D01*
X60762857Y-114575857D01*
X60905714Y-114575857D01*
X61000952Y-114623476D01*
X61048571Y-114671095D01*
X61096190Y-114766333D01*
X61096190Y-115147285D01*
X61572380Y-113623476D02*
X61572380Y-114194904D01*
X61572380Y-113909190D02*
X60572380Y-113909190D01*
X60715238Y-114004428D01*
X60810476Y-114099666D01*
X60858095Y-114194904D01*
X60905714Y-112766333D02*
X61572380Y-112766333D01*
X60524761Y-113004428D02*
X61239047Y-113242523D01*
X61239047Y-112623476D01*
X61572380Y-107590857D02*
X61096190Y-107924190D01*
X61572380Y-108162285D02*
X60572380Y-108162285D01*
X60572380Y-107781333D01*
X60620000Y-107686095D01*
X60667619Y-107638476D01*
X60762857Y-107590857D01*
X60905714Y-107590857D01*
X61000952Y-107638476D01*
X61048571Y-107686095D01*
X61096190Y-107781333D01*
X61096190Y-108162285D01*
X61572380Y-106638476D02*
X61572380Y-107209904D01*
X61572380Y-106924190D02*
X60572380Y-106924190D01*
X60715238Y-107019428D01*
X60810476Y-107114666D01*
X60858095Y-107209904D01*
X60572380Y-106305142D02*
X60572380Y-105686095D01*
X60953333Y-106019428D01*
X60953333Y-105876571D01*
X61000952Y-105781333D01*
X61048571Y-105733714D01*
X61143809Y-105686095D01*
X61381904Y-105686095D01*
X61477142Y-105733714D01*
X61524761Y-105781333D01*
X61572380Y-105876571D01*
X61572380Y-106162285D01*
X61524761Y-106257523D01*
X61477142Y-106305142D01*
X61572380Y-100478857D02*
X61096190Y-100812190D01*
X61572380Y-101050285D02*
X60572380Y-101050285D01*
X60572380Y-100669333D01*
X60620000Y-100574095D01*
X60667619Y-100526476D01*
X60762857Y-100478857D01*
X60905714Y-100478857D01*
X61000952Y-100526476D01*
X61048571Y-100574095D01*
X61096190Y-100669333D01*
X61096190Y-101050285D01*
X61572380Y-99526476D02*
X61572380Y-100097904D01*
X61572380Y-99812190D02*
X60572380Y-99812190D01*
X60715238Y-99907428D01*
X60810476Y-100002666D01*
X60858095Y-100097904D01*
X60667619Y-99145523D02*
X60620000Y-99097904D01*
X60572380Y-99002666D01*
X60572380Y-98764571D01*
X60620000Y-98669333D01*
X60667619Y-98621714D01*
X60762857Y-98574095D01*
X60858095Y-98574095D01*
X61000952Y-98621714D01*
X61572380Y-99193142D01*
X61572380Y-98574095D01*
X117419380Y-103004857D02*
X116943190Y-103338190D01*
X117419380Y-103576285D02*
X116419380Y-103576285D01*
X116419380Y-103195333D01*
X116467000Y-103100095D01*
X116514619Y-103052476D01*
X116609857Y-103004857D01*
X116752714Y-103004857D01*
X116847952Y-103052476D01*
X116895571Y-103100095D01*
X116943190Y-103195333D01*
X116943190Y-103576285D01*
X117419380Y-102052476D02*
X117419380Y-102623904D01*
X117419380Y-102338190D02*
X116419380Y-102338190D01*
X116562238Y-102433428D01*
X116657476Y-102528666D01*
X116705095Y-102623904D01*
X117419380Y-101100095D02*
X117419380Y-101671523D01*
X117419380Y-101385809D02*
X116419380Y-101385809D01*
X116562238Y-101481047D01*
X116657476Y-101576285D01*
X116705095Y-101671523D01*
X117419380Y-124467857D02*
X116943190Y-124801190D01*
X117419380Y-125039285D02*
X116419380Y-125039285D01*
X116419380Y-124658333D01*
X116467000Y-124563095D01*
X116514619Y-124515476D01*
X116609857Y-124467857D01*
X116752714Y-124467857D01*
X116847952Y-124515476D01*
X116895571Y-124563095D01*
X116943190Y-124658333D01*
X116943190Y-125039285D01*
X117419380Y-123515476D02*
X117419380Y-124086904D01*
X117419380Y-123801190D02*
X116419380Y-123801190D01*
X116562238Y-123896428D01*
X116657476Y-123991666D01*
X116705095Y-124086904D01*
X116419380Y-122896428D02*
X116419380Y-122801190D01*
X116467000Y-122705952D01*
X116514619Y-122658333D01*
X116609857Y-122610714D01*
X116800333Y-122563095D01*
X117038428Y-122563095D01*
X117228904Y-122610714D01*
X117324142Y-122658333D01*
X117371761Y-122705952D01*
X117419380Y-122801190D01*
X117419380Y-122896428D01*
X117371761Y-122991666D01*
X117324142Y-123039285D01*
X117228904Y-123086904D01*
X117038428Y-123134523D01*
X116800333Y-123134523D01*
X116609857Y-123086904D01*
X116514619Y-123039285D01*
X116467000Y-122991666D01*
X116419380Y-122896428D01*
X117292380Y-144692666D02*
X116816190Y-145026000D01*
X117292380Y-145264095D02*
X116292380Y-145264095D01*
X116292380Y-144883142D01*
X116340000Y-144787904D01*
X116387619Y-144740285D01*
X116482857Y-144692666D01*
X116625714Y-144692666D01*
X116720952Y-144740285D01*
X116768571Y-144787904D01*
X116816190Y-144883142D01*
X116816190Y-145264095D01*
X117292380Y-144216476D02*
X117292380Y-144026000D01*
X117244761Y-143930761D01*
X117197142Y-143883142D01*
X117054285Y-143787904D01*
X116863809Y-143740285D01*
X116482857Y-143740285D01*
X116387619Y-143787904D01*
X116340000Y-143835523D01*
X116292380Y-143930761D01*
X116292380Y-144121238D01*
X116340000Y-144216476D01*
X116387619Y-144264095D01*
X116482857Y-144311714D01*
X116720952Y-144311714D01*
X116816190Y-144264095D01*
X116863809Y-144216476D01*
X116911428Y-144121238D01*
X116911428Y-143930761D01*
X116863809Y-143835523D01*
X116816190Y-143787904D01*
X116720952Y-143740285D01*
X91765380Y-113577666D02*
X91289190Y-113911000D01*
X91765380Y-114149095D02*
X90765380Y-114149095D01*
X90765380Y-113768142D01*
X90813000Y-113672904D01*
X90860619Y-113625285D01*
X90955857Y-113577666D01*
X91098714Y-113577666D01*
X91193952Y-113625285D01*
X91241571Y-113672904D01*
X91289190Y-113768142D01*
X91289190Y-114149095D01*
X91193952Y-113006238D02*
X91146333Y-113101476D01*
X91098714Y-113149095D01*
X91003476Y-113196714D01*
X90955857Y-113196714D01*
X90860619Y-113149095D01*
X90813000Y-113101476D01*
X90765380Y-113006238D01*
X90765380Y-112815761D01*
X90813000Y-112720523D01*
X90860619Y-112672904D01*
X90955857Y-112625285D01*
X91003476Y-112625285D01*
X91098714Y-112672904D01*
X91146333Y-112720523D01*
X91193952Y-112815761D01*
X91193952Y-113006238D01*
X91241571Y-113101476D01*
X91289190Y-113149095D01*
X91384428Y-113196714D01*
X91574904Y-113196714D01*
X91670142Y-113149095D01*
X91717761Y-113101476D01*
X91765380Y-113006238D01*
X91765380Y-112815761D01*
X91717761Y-112720523D01*
X91670142Y-112672904D01*
X91574904Y-112625285D01*
X91384428Y-112625285D01*
X91289190Y-112672904D01*
X91241571Y-112720523D01*
X91193952Y-112815761D01*
X112339380Y-114593666D02*
X111863190Y-114927000D01*
X112339380Y-115165095D02*
X111339380Y-115165095D01*
X111339380Y-114784142D01*
X111387000Y-114688904D01*
X111434619Y-114641285D01*
X111529857Y-114593666D01*
X111672714Y-114593666D01*
X111767952Y-114641285D01*
X111815571Y-114688904D01*
X111863190Y-114784142D01*
X111863190Y-115165095D01*
X111339380Y-113688904D02*
X111339380Y-114165095D01*
X111815571Y-114212714D01*
X111767952Y-114165095D01*
X111720333Y-114069857D01*
X111720333Y-113831761D01*
X111767952Y-113736523D01*
X111815571Y-113688904D01*
X111910809Y-113641285D01*
X112148904Y-113641285D01*
X112244142Y-113688904D01*
X112291761Y-113736523D01*
X112339380Y-113831761D01*
X112339380Y-114069857D01*
X112291761Y-114165095D01*
X112244142Y-114212714D01*
X117292380Y-120816666D02*
X116816190Y-121150000D01*
X117292380Y-121388095D02*
X116292380Y-121388095D01*
X116292380Y-121007142D01*
X116340000Y-120911904D01*
X116387619Y-120864285D01*
X116482857Y-120816666D01*
X116625714Y-120816666D01*
X116720952Y-120864285D01*
X116768571Y-120911904D01*
X116816190Y-121007142D01*
X116816190Y-121388095D01*
X116625714Y-119959523D02*
X117292380Y-119959523D01*
X116244761Y-120197619D02*
X116959047Y-120435714D01*
X116959047Y-119816666D01*
X52284380Y-138985523D02*
X52998666Y-138985523D01*
X53141523Y-139033142D01*
X53236761Y-139128380D01*
X53284380Y-139271238D01*
X53284380Y-139366476D01*
X52284380Y-138604571D02*
X52284380Y-137985523D01*
X52665333Y-138318857D01*
X52665333Y-138176000D01*
X52712952Y-138080761D01*
X52760571Y-138033142D01*
X52855809Y-137985523D01*
X53093904Y-137985523D01*
X53189142Y-138033142D01*
X53236761Y-138080761D01*
X53284380Y-138176000D01*
X53284380Y-138461714D01*
X53236761Y-138556952D01*
X53189142Y-138604571D01*
X52284380Y-137366476D02*
X52284380Y-137271238D01*
X52332000Y-137176000D01*
X52379619Y-137128380D01*
X52474857Y-137080761D01*
X52665333Y-137033142D01*
X52903428Y-137033142D01*
X53093904Y-137080761D01*
X53189142Y-137128380D01*
X53236761Y-137176000D01*
X53284380Y-137271238D01*
X53284380Y-137366476D01*
X53236761Y-137461714D01*
X53189142Y-137509333D01*
X53093904Y-137556952D01*
X52903428Y-137604571D01*
X52665333Y-137604571D01*
X52474857Y-137556952D01*
X52379619Y-137509333D01*
X52332000Y-137461714D01*
X52284380Y-137366476D01*
X52284380Y-132000523D02*
X52998666Y-132000523D01*
X53141523Y-132048142D01*
X53236761Y-132143380D01*
X53284380Y-132286238D01*
X53284380Y-132381476D01*
X52379619Y-131571952D02*
X52332000Y-131524333D01*
X52284380Y-131429095D01*
X52284380Y-131191000D01*
X52332000Y-131095761D01*
X52379619Y-131048142D01*
X52474857Y-131000523D01*
X52570095Y-131000523D01*
X52712952Y-131048142D01*
X53284380Y-131619571D01*
X53284380Y-131000523D01*
X53284380Y-130524333D02*
X53284380Y-130333857D01*
X53236761Y-130238619D01*
X53189142Y-130191000D01*
X53046285Y-130095761D01*
X52855809Y-130048142D01*
X52474857Y-130048142D01*
X52379619Y-130095761D01*
X52332000Y-130143380D01*
X52284380Y-130238619D01*
X52284380Y-130429095D01*
X52332000Y-130524333D01*
X52379619Y-130571952D01*
X52474857Y-130619571D01*
X52712952Y-130619571D01*
X52808190Y-130571952D01*
X52855809Y-130524333D01*
X52903428Y-130429095D01*
X52903428Y-130238619D01*
X52855809Y-130143380D01*
X52808190Y-130095761D01*
X52712952Y-130048142D01*
X52284380Y-125015523D02*
X52998666Y-125015523D01*
X53141523Y-125063142D01*
X53236761Y-125158380D01*
X53284380Y-125301238D01*
X53284380Y-125396476D01*
X52379619Y-124586952D02*
X52332000Y-124539333D01*
X52284380Y-124444095D01*
X52284380Y-124206000D01*
X52332000Y-124110761D01*
X52379619Y-124063142D01*
X52474857Y-124015523D01*
X52570095Y-124015523D01*
X52712952Y-124063142D01*
X53284380Y-124634571D01*
X53284380Y-124015523D01*
X52712952Y-123444095D02*
X52665333Y-123539333D01*
X52617714Y-123586952D01*
X52522476Y-123634571D01*
X52474857Y-123634571D01*
X52379619Y-123586952D01*
X52332000Y-123539333D01*
X52284380Y-123444095D01*
X52284380Y-123253619D01*
X52332000Y-123158380D01*
X52379619Y-123110761D01*
X52474857Y-123063142D01*
X52522476Y-123063142D01*
X52617714Y-123110761D01*
X52665333Y-123158380D01*
X52712952Y-123253619D01*
X52712952Y-123444095D01*
X52760571Y-123539333D01*
X52808190Y-123586952D01*
X52903428Y-123634571D01*
X53093904Y-123634571D01*
X53189142Y-123586952D01*
X53236761Y-123539333D01*
X53284380Y-123444095D01*
X53284380Y-123253619D01*
X53236761Y-123158380D01*
X53189142Y-123110761D01*
X53093904Y-123063142D01*
X52903428Y-123063142D01*
X52808190Y-123110761D01*
X52760571Y-123158380D01*
X52712952Y-123253619D01*
X52284380Y-117903523D02*
X52998666Y-117903523D01*
X53141523Y-117951142D01*
X53236761Y-118046380D01*
X53284380Y-118189238D01*
X53284380Y-118284476D01*
X52379619Y-117474952D02*
X52332000Y-117427333D01*
X52284380Y-117332095D01*
X52284380Y-117094000D01*
X52332000Y-116998761D01*
X52379619Y-116951142D01*
X52474857Y-116903523D01*
X52570095Y-116903523D01*
X52712952Y-116951142D01*
X53284380Y-117522571D01*
X53284380Y-116903523D01*
X52284380Y-116570190D02*
X52284380Y-115903523D01*
X53284380Y-116332095D01*
X52284380Y-110918523D02*
X52998666Y-110918523D01*
X53141523Y-110966142D01*
X53236761Y-111061380D01*
X53284380Y-111204238D01*
X53284380Y-111299476D01*
X52379619Y-110489952D02*
X52332000Y-110442333D01*
X52284380Y-110347095D01*
X52284380Y-110109000D01*
X52332000Y-110013761D01*
X52379619Y-109966142D01*
X52474857Y-109918523D01*
X52570095Y-109918523D01*
X52712952Y-109966142D01*
X53284380Y-110537571D01*
X53284380Y-109918523D01*
X52284380Y-109061380D02*
X52284380Y-109251857D01*
X52332000Y-109347095D01*
X52379619Y-109394714D01*
X52522476Y-109489952D01*
X52712952Y-109537571D01*
X53093904Y-109537571D01*
X53189142Y-109489952D01*
X53236761Y-109442333D01*
X53284380Y-109347095D01*
X53284380Y-109156619D01*
X53236761Y-109061380D01*
X53189142Y-109013761D01*
X53093904Y-108966142D01*
X52855809Y-108966142D01*
X52760571Y-109013761D01*
X52712952Y-109061380D01*
X52665333Y-109156619D01*
X52665333Y-109347095D01*
X52712952Y-109442333D01*
X52760571Y-109489952D01*
X52855809Y-109537571D01*
X52284380Y-103933523D02*
X52998666Y-103933523D01*
X53141523Y-103981142D01*
X53236761Y-104076380D01*
X53284380Y-104219238D01*
X53284380Y-104314476D01*
X52379619Y-103504952D02*
X52332000Y-103457333D01*
X52284380Y-103362095D01*
X52284380Y-103124000D01*
X52332000Y-103028761D01*
X52379619Y-102981142D01*
X52474857Y-102933523D01*
X52570095Y-102933523D01*
X52712952Y-102981142D01*
X53284380Y-103552571D01*
X53284380Y-102933523D01*
X52284380Y-102028761D02*
X52284380Y-102504952D01*
X52760571Y-102552571D01*
X52712952Y-102504952D01*
X52665333Y-102409714D01*
X52665333Y-102171619D01*
X52712952Y-102076380D01*
X52760571Y-102028761D01*
X52855809Y-101981142D01*
X53093904Y-101981142D01*
X53189142Y-102028761D01*
X53236761Y-102076380D01*
X53284380Y-102171619D01*
X53284380Y-102409714D01*
X53236761Y-102504952D01*
X53189142Y-102552571D01*
X52284380Y-96948523D02*
X52998666Y-96948523D01*
X53141523Y-96996142D01*
X53236761Y-97091380D01*
X53284380Y-97234238D01*
X53284380Y-97329476D01*
X52379619Y-96519952D02*
X52332000Y-96472333D01*
X52284380Y-96377095D01*
X52284380Y-96139000D01*
X52332000Y-96043761D01*
X52379619Y-95996142D01*
X52474857Y-95948523D01*
X52570095Y-95948523D01*
X52712952Y-95996142D01*
X53284380Y-96567571D01*
X53284380Y-95948523D01*
X52617714Y-95091380D02*
X53284380Y-95091380D01*
X52236761Y-95329476D02*
X52951047Y-95567571D01*
X52951047Y-94948523D01*
X60658476Y-140292380D02*
X60658476Y-141006666D01*
X60610857Y-141149523D01*
X60515619Y-141244761D01*
X60372761Y-141292380D01*
X60277523Y-141292380D01*
X61087047Y-140387619D02*
X61134666Y-140340000D01*
X61229904Y-140292380D01*
X61468000Y-140292380D01*
X61563238Y-140340000D01*
X61610857Y-140387619D01*
X61658476Y-140482857D01*
X61658476Y-140578095D01*
X61610857Y-140720952D01*
X61039428Y-141292380D01*
X61658476Y-141292380D01*
X62610857Y-141292380D02*
X62039428Y-141292380D01*
X62325142Y-141292380D02*
X62325142Y-140292380D01*
X62229904Y-140435238D01*
X62134666Y-140530476D01*
X62039428Y-140578095D01*
X72596476Y-140295380D02*
X72596476Y-141009666D01*
X72548857Y-141152523D01*
X72453619Y-141247761D01*
X72310761Y-141295380D01*
X72215523Y-141295380D01*
X73025047Y-140390619D02*
X73072666Y-140343000D01*
X73167904Y-140295380D01*
X73406000Y-140295380D01*
X73501238Y-140343000D01*
X73548857Y-140390619D01*
X73596476Y-140485857D01*
X73596476Y-140581095D01*
X73548857Y-140723952D01*
X72977428Y-141295380D01*
X73596476Y-141295380D01*
X74215523Y-140295380D02*
X74310761Y-140295380D01*
X74406000Y-140343000D01*
X74453619Y-140390619D01*
X74501238Y-140485857D01*
X74548857Y-140676333D01*
X74548857Y-140914428D01*
X74501238Y-141104904D01*
X74453619Y-141200142D01*
X74406000Y-141247761D01*
X74310761Y-141295380D01*
X74215523Y-141295380D01*
X74120285Y-141247761D01*
X74072666Y-141200142D01*
X74025047Y-141104904D01*
X73977428Y-140914428D01*
X73977428Y-140676333D01*
X74025047Y-140485857D01*
X74072666Y-140390619D01*
X74120285Y-140343000D01*
X74215523Y-140295380D01*
X134701380Y-100039523D02*
X135415666Y-100039523D01*
X135558523Y-100087142D01*
X135653761Y-100182380D01*
X135701380Y-100325238D01*
X135701380Y-100420476D01*
X135701380Y-99039523D02*
X135701380Y-99610952D01*
X135701380Y-99325238D02*
X134701380Y-99325238D01*
X134844238Y-99420476D01*
X134939476Y-99515714D01*
X134987095Y-99610952D01*
X135129952Y-98468095D02*
X135082333Y-98563333D01*
X135034714Y-98610952D01*
X134939476Y-98658571D01*
X134891857Y-98658571D01*
X134796619Y-98610952D01*
X134749000Y-98563333D01*
X134701380Y-98468095D01*
X134701380Y-98277619D01*
X134749000Y-98182380D01*
X134796619Y-98134761D01*
X134891857Y-98087142D01*
X134939476Y-98087142D01*
X135034714Y-98134761D01*
X135082333Y-98182380D01*
X135129952Y-98277619D01*
X135129952Y-98468095D01*
X135177571Y-98563333D01*
X135225190Y-98610952D01*
X135320428Y-98658571D01*
X135510904Y-98658571D01*
X135606142Y-98610952D01*
X135653761Y-98563333D01*
X135701380Y-98468095D01*
X135701380Y-98277619D01*
X135653761Y-98182380D01*
X135606142Y-98134761D01*
X135510904Y-98087142D01*
X135320428Y-98087142D01*
X135225190Y-98134761D01*
X135177571Y-98182380D01*
X135129952Y-98277619D01*
X131691380Y-122204523D02*
X132405666Y-122204523D01*
X132548523Y-122252142D01*
X132643761Y-122347380D01*
X132691380Y-122490238D01*
X132691380Y-122585476D01*
X132691380Y-121204523D02*
X132691380Y-121775952D01*
X132691380Y-121490238D02*
X131691380Y-121490238D01*
X131834238Y-121585476D01*
X131929476Y-121680714D01*
X131977095Y-121775952D01*
X131691380Y-120871190D02*
X131691380Y-120204523D01*
X132691380Y-120633095D01*
X95083380Y-100504523D02*
X95797666Y-100504523D01*
X95940523Y-100552142D01*
X96035761Y-100647380D01*
X96083380Y-100790238D01*
X96083380Y-100885476D01*
X96083380Y-99504523D02*
X96083380Y-100075952D01*
X96083380Y-99790238D02*
X95083380Y-99790238D01*
X95226238Y-99885476D01*
X95321476Y-99980714D01*
X95369095Y-100075952D01*
X95416714Y-98647380D02*
X96083380Y-98647380D01*
X95035761Y-98885476D02*
X95750047Y-99123571D01*
X95750047Y-98504523D01*
X95083380Y-106854523D02*
X95797666Y-106854523D01*
X95940523Y-106902142D01*
X96035761Y-106997380D01*
X96083380Y-107140238D01*
X96083380Y-107235476D01*
X96083380Y-105854523D02*
X96083380Y-106425952D01*
X96083380Y-106140238D02*
X95083380Y-106140238D01*
X95226238Y-106235476D01*
X95321476Y-106330714D01*
X95369095Y-106425952D01*
X95083380Y-105521190D02*
X95083380Y-104902142D01*
X95464333Y-105235476D01*
X95464333Y-105092619D01*
X95511952Y-104997380D01*
X95559571Y-104949761D01*
X95654809Y-104902142D01*
X95892904Y-104902142D01*
X95988142Y-104949761D01*
X96035761Y-104997380D01*
X96083380Y-105092619D01*
X96083380Y-105378333D01*
X96035761Y-105473571D01*
X95988142Y-105521190D01*
X95083380Y-113077523D02*
X95797666Y-113077523D01*
X95940523Y-113125142D01*
X96035761Y-113220380D01*
X96083380Y-113363238D01*
X96083380Y-113458476D01*
X96083380Y-112077523D02*
X96083380Y-112648952D01*
X96083380Y-112363238D02*
X95083380Y-112363238D01*
X95226238Y-112458476D01*
X95321476Y-112553714D01*
X95369095Y-112648952D01*
X95178619Y-111696571D02*
X95131000Y-111648952D01*
X95083380Y-111553714D01*
X95083380Y-111315619D01*
X95131000Y-111220380D01*
X95178619Y-111172761D01*
X95273857Y-111125142D01*
X95369095Y-111125142D01*
X95511952Y-111172761D01*
X96083380Y-111744190D01*
X96083380Y-111125142D01*
X61793380Y-138914095D02*
X60793380Y-138914095D01*
X60793380Y-138676000D01*
X60841000Y-138533142D01*
X60936238Y-138437904D01*
X61031476Y-138390285D01*
X61221952Y-138342666D01*
X61364809Y-138342666D01*
X61555285Y-138390285D01*
X61650523Y-138437904D01*
X61745761Y-138533142D01*
X61793380Y-138676000D01*
X61793380Y-138914095D01*
X60793380Y-138009333D02*
X60793380Y-137342666D01*
X61793380Y-137771238D01*
X61666380Y-131613095D02*
X60666380Y-131613095D01*
X60666380Y-131375000D01*
X60714000Y-131232142D01*
X60809238Y-131136904D01*
X60904476Y-131089285D01*
X61094952Y-131041666D01*
X61237809Y-131041666D01*
X61428285Y-131089285D01*
X61523523Y-131136904D01*
X61618761Y-131232142D01*
X61666380Y-131375000D01*
X61666380Y-131613095D01*
X60666380Y-130184523D02*
X60666380Y-130375000D01*
X60714000Y-130470238D01*
X60761619Y-130517857D01*
X60904476Y-130613095D01*
X61094952Y-130660714D01*
X61475904Y-130660714D01*
X61571142Y-130613095D01*
X61618761Y-130565476D01*
X61666380Y-130470238D01*
X61666380Y-130279761D01*
X61618761Y-130184523D01*
X61571142Y-130136904D01*
X61475904Y-130089285D01*
X61237809Y-130089285D01*
X61142571Y-130136904D01*
X61094952Y-130184523D01*
X61047333Y-130279761D01*
X61047333Y-130470238D01*
X61094952Y-130565476D01*
X61142571Y-130613095D01*
X61237809Y-130660714D01*
X61666380Y-124944095D02*
X60666380Y-124944095D01*
X60666380Y-124706000D01*
X60714000Y-124563142D01*
X60809238Y-124467904D01*
X60904476Y-124420285D01*
X61094952Y-124372666D01*
X61237809Y-124372666D01*
X61428285Y-124420285D01*
X61523523Y-124467904D01*
X61618761Y-124563142D01*
X61666380Y-124706000D01*
X61666380Y-124944095D01*
X60666380Y-123467904D02*
X60666380Y-123944095D01*
X61142571Y-123991714D01*
X61094952Y-123944095D01*
X61047333Y-123848857D01*
X61047333Y-123610761D01*
X61094952Y-123515523D01*
X61142571Y-123467904D01*
X61237809Y-123420285D01*
X61475904Y-123420285D01*
X61571142Y-123467904D01*
X61618761Y-123515523D01*
X61666380Y-123610761D01*
X61666380Y-123848857D01*
X61618761Y-123944095D01*
X61571142Y-123991714D01*
X61793380Y-117832095D02*
X60793380Y-117832095D01*
X60793380Y-117594000D01*
X60841000Y-117451142D01*
X60936238Y-117355904D01*
X61031476Y-117308285D01*
X61221952Y-117260666D01*
X61364809Y-117260666D01*
X61555285Y-117308285D01*
X61650523Y-117355904D01*
X61745761Y-117451142D01*
X61793380Y-117594000D01*
X61793380Y-117832095D01*
X61126714Y-116403523D02*
X61793380Y-116403523D01*
X60745761Y-116641619D02*
X61460047Y-116879714D01*
X61460047Y-116260666D01*
X61793380Y-110847095D02*
X60793380Y-110847095D01*
X60793380Y-110609000D01*
X60841000Y-110466142D01*
X60936238Y-110370904D01*
X61031476Y-110323285D01*
X61221952Y-110275666D01*
X61364809Y-110275666D01*
X61555285Y-110323285D01*
X61650523Y-110370904D01*
X61745761Y-110466142D01*
X61793380Y-110609000D01*
X61793380Y-110847095D01*
X60793380Y-109942333D02*
X60793380Y-109323285D01*
X61174333Y-109656619D01*
X61174333Y-109513761D01*
X61221952Y-109418523D01*
X61269571Y-109370904D01*
X61364809Y-109323285D01*
X61602904Y-109323285D01*
X61698142Y-109370904D01*
X61745761Y-109418523D01*
X61793380Y-109513761D01*
X61793380Y-109799476D01*
X61745761Y-109894714D01*
X61698142Y-109942333D01*
X61793380Y-103735095D02*
X60793380Y-103735095D01*
X60793380Y-103497000D01*
X60841000Y-103354142D01*
X60936238Y-103258904D01*
X61031476Y-103211285D01*
X61221952Y-103163666D01*
X61364809Y-103163666D01*
X61555285Y-103211285D01*
X61650523Y-103258904D01*
X61745761Y-103354142D01*
X61793380Y-103497000D01*
X61793380Y-103735095D01*
X60888619Y-102782714D02*
X60841000Y-102735095D01*
X60793380Y-102639857D01*
X60793380Y-102401761D01*
X60841000Y-102306523D01*
X60888619Y-102258904D01*
X60983857Y-102211285D01*
X61079095Y-102211285D01*
X61221952Y-102258904D01*
X61793380Y-102830333D01*
X61793380Y-102211285D01*
X135358142Y-107830857D02*
X135405761Y-107878476D01*
X135453380Y-108021333D01*
X135453380Y-108116571D01*
X135405761Y-108259428D01*
X135310523Y-108354666D01*
X135215285Y-108402285D01*
X135024809Y-108449904D01*
X134881952Y-108449904D01*
X134691476Y-108402285D01*
X134596238Y-108354666D01*
X134501000Y-108259428D01*
X134453380Y-108116571D01*
X134453380Y-108021333D01*
X134501000Y-107878476D01*
X134548619Y-107830857D01*
X135453380Y-106878476D02*
X135453380Y-107449904D01*
X135453380Y-107164190D02*
X134453380Y-107164190D01*
X134596238Y-107259428D01*
X134691476Y-107354666D01*
X134739095Y-107449904D01*
X134453380Y-106545142D02*
X134453380Y-105926095D01*
X134834333Y-106259428D01*
X134834333Y-106116571D01*
X134881952Y-106021333D01*
X134929571Y-105973714D01*
X135024809Y-105926095D01*
X135262904Y-105926095D01*
X135358142Y-105973714D01*
X135405761Y-106021333D01*
X135453380Y-106116571D01*
X135453380Y-106402285D01*
X135405761Y-106497523D01*
X135358142Y-106545142D01*
X123420142Y-94114857D02*
X123467761Y-94162476D01*
X123515380Y-94305333D01*
X123515380Y-94400571D01*
X123467761Y-94543428D01*
X123372523Y-94638666D01*
X123277285Y-94686285D01*
X123086809Y-94733904D01*
X122943952Y-94733904D01*
X122753476Y-94686285D01*
X122658238Y-94638666D01*
X122563000Y-94543428D01*
X122515380Y-94400571D01*
X122515380Y-94305333D01*
X122563000Y-94162476D01*
X122610619Y-94114857D01*
X123515380Y-93162476D02*
X123515380Y-93733904D01*
X123515380Y-93448190D02*
X122515380Y-93448190D01*
X122658238Y-93543428D01*
X122753476Y-93638666D01*
X122801095Y-93733904D01*
X122610619Y-92781523D02*
X122563000Y-92733904D01*
X122515380Y-92638666D01*
X122515380Y-92400571D01*
X122563000Y-92305333D01*
X122610619Y-92257714D01*
X122705857Y-92210095D01*
X122801095Y-92210095D01*
X122943952Y-92257714D01*
X123515380Y-92829142D01*
X123515380Y-92210095D01*
X135628142Y-88368142D02*
X135580523Y-88415761D01*
X135437666Y-88463380D01*
X135342428Y-88463380D01*
X135199571Y-88415761D01*
X135104333Y-88320523D01*
X135056714Y-88225285D01*
X135009095Y-88034809D01*
X135009095Y-87891952D01*
X135056714Y-87701476D01*
X135104333Y-87606238D01*
X135199571Y-87511000D01*
X135342428Y-87463380D01*
X135437666Y-87463380D01*
X135580523Y-87511000D01*
X135628142Y-87558619D01*
X136580523Y-88463380D02*
X136009095Y-88463380D01*
X136294809Y-88463380D02*
X136294809Y-87463380D01*
X136199571Y-87606238D01*
X136104333Y-87701476D01*
X136009095Y-87749095D01*
X137532904Y-88463380D02*
X136961476Y-88463380D01*
X137247190Y-88463380D02*
X137247190Y-87463380D01*
X137151952Y-87606238D01*
X137056714Y-87701476D01*
X136961476Y-87749095D01*
X73620333Y-123642380D02*
X73287000Y-123166190D01*
X73048904Y-123642380D02*
X73048904Y-122642380D01*
X73429857Y-122642380D01*
X73525095Y-122690000D01*
X73572714Y-122737619D01*
X73620333Y-122832857D01*
X73620333Y-122975714D01*
X73572714Y-123070952D01*
X73525095Y-123118571D01*
X73429857Y-123166190D01*
X73048904Y-123166190D01*
X73953666Y-122642380D02*
X74620333Y-122642380D01*
X74191761Y-123642380D01*
X79208333Y-118943380D02*
X78875000Y-118467190D01*
X78636904Y-118943380D02*
X78636904Y-117943380D01*
X79017857Y-117943380D01*
X79113095Y-117991000D01*
X79160714Y-118038619D01*
X79208333Y-118133857D01*
X79208333Y-118276714D01*
X79160714Y-118371952D01*
X79113095Y-118419571D01*
X79017857Y-118467190D01*
X78636904Y-118467190D01*
X80065476Y-117943380D02*
X79875000Y-117943380D01*
X79779761Y-117991000D01*
X79732142Y-118038619D01*
X79636904Y-118181476D01*
X79589285Y-118371952D01*
X79589285Y-118752904D01*
X79636904Y-118848142D01*
X79684523Y-118895761D01*
X79779761Y-118943380D01*
X79970238Y-118943380D01*
X80065476Y-118895761D01*
X80113095Y-118848142D01*
X80160714Y-118752904D01*
X80160714Y-118514809D01*
X80113095Y-118419571D01*
X80065476Y-118371952D01*
X79970238Y-118324333D01*
X79779761Y-118324333D01*
X79684523Y-118371952D01*
X79636904Y-118419571D01*
X79589285Y-118514809D01*
X141565333Y-107291142D02*
X141517714Y-107338761D01*
X141374857Y-107386380D01*
X141279619Y-107386380D01*
X141136761Y-107338761D01*
X141041523Y-107243523D01*
X140993904Y-107148285D01*
X140946285Y-106957809D01*
X140946285Y-106814952D01*
X140993904Y-106624476D01*
X141041523Y-106529238D01*
X141136761Y-106434000D01*
X141279619Y-106386380D01*
X141374857Y-106386380D01*
X141517714Y-106434000D01*
X141565333Y-106481619D01*
X141898666Y-106386380D02*
X142565333Y-106386380D01*
X142136761Y-107386380D01*
X71782380Y-92836904D02*
X72591904Y-92836904D01*
X72687142Y-92789285D01*
X72734761Y-92741666D01*
X72782380Y-92646428D01*
X72782380Y-92455952D01*
X72734761Y-92360714D01*
X72687142Y-92313095D01*
X72591904Y-92265476D01*
X71782380Y-92265476D01*
X71782380Y-91884523D02*
X71782380Y-91217857D01*
X72782380Y-91646428D01*
X136017095Y-107402380D02*
X136017095Y-108211904D01*
X136064714Y-108307142D01*
X136112333Y-108354761D01*
X136207571Y-108402380D01*
X136398047Y-108402380D01*
X136493285Y-108354761D01*
X136540904Y-108307142D01*
X136588523Y-108211904D01*
X136588523Y-107402380D01*
X137017095Y-107497619D02*
X137064714Y-107450000D01*
X137159952Y-107402380D01*
X137398047Y-107402380D01*
X137493285Y-107450000D01*
X137540904Y-107497619D01*
X137588523Y-107592857D01*
X137588523Y-107688095D01*
X137540904Y-107830952D01*
X136969476Y-108402380D01*
X137588523Y-108402380D01*
X73747333Y-120372142D02*
X73699714Y-120419761D01*
X73556857Y-120467380D01*
X73461619Y-120467380D01*
X73318761Y-120419761D01*
X73223523Y-120324523D01*
X73175904Y-120229285D01*
X73128285Y-120038809D01*
X73128285Y-119895952D01*
X73175904Y-119705476D01*
X73223523Y-119610238D01*
X73318761Y-119515000D01*
X73461619Y-119467380D01*
X73556857Y-119467380D01*
X73699714Y-119515000D01*
X73747333Y-119562619D01*
X74604476Y-119467380D02*
X74414000Y-119467380D01*
X74318761Y-119515000D01*
X74271142Y-119562619D01*
X74175904Y-119705476D01*
X74128285Y-119895952D01*
X74128285Y-120276904D01*
X74175904Y-120372142D01*
X74223523Y-120419761D01*
X74318761Y-120467380D01*
X74509238Y-120467380D01*
X74604476Y-120419761D01*
X74652095Y-120372142D01*
X74699714Y-120276904D01*
X74699714Y-120038809D01*
X74652095Y-119943571D01*
X74604476Y-119895952D01*
X74509238Y-119848333D01*
X74318761Y-119848333D01*
X74223523Y-119895952D01*
X74175904Y-119943571D01*
X74128285Y-120038809D01*
X73025095Y-114387380D02*
X73025095Y-115196904D01*
X73072714Y-115292142D01*
X73120333Y-115339761D01*
X73215571Y-115387380D01*
X73406047Y-115387380D01*
X73501285Y-115339761D01*
X73548904Y-115292142D01*
X73596523Y-115196904D01*
X73596523Y-114387380D01*
X74548904Y-114387380D02*
X74072714Y-114387380D01*
X74025095Y-114863571D01*
X74072714Y-114815952D01*
X74167952Y-114768333D01*
X74406047Y-114768333D01*
X74501285Y-114815952D01*
X74548904Y-114863571D01*
X74596523Y-114958809D01*
X74596523Y-115196904D01*
X74548904Y-115292142D01*
X74501285Y-115339761D01*
X74406047Y-115387380D01*
X74167952Y-115387380D01*
X74072714Y-115339761D01*
X74025095Y-115292142D01*
X60960095Y-132294380D02*
X60960095Y-133103904D01*
X61007714Y-133199142D01*
X61055333Y-133246761D01*
X61150571Y-133294380D01*
X61341047Y-133294380D01*
X61436285Y-133246761D01*
X61483904Y-133199142D01*
X61531523Y-133103904D01*
X61531523Y-132294380D01*
X62436285Y-132627714D02*
X62436285Y-133294380D01*
X62198190Y-132246761D02*
X61960095Y-132961047D01*
X62579142Y-132961047D01*
X134707380Y-140287333D02*
X135421666Y-140287333D01*
X135564523Y-140334952D01*
X135659761Y-140430190D01*
X135707380Y-140573047D01*
X135707380Y-140668285D01*
X134707380Y-139334952D02*
X134707380Y-139811142D01*
X135183571Y-139858761D01*
X135135952Y-139811142D01*
X135088333Y-139715904D01*
X135088333Y-139477809D01*
X135135952Y-139382571D01*
X135183571Y-139334952D01*
X135278809Y-139287333D01*
X135516904Y-139287333D01*
X135612142Y-139334952D01*
X135659761Y-139382571D01*
X135707380Y-139477809D01*
X135707380Y-139715904D01*
X135659761Y-139811142D01*
X135612142Y-139858761D01*
X123420142Y-136310666D02*
X123467761Y-136358285D01*
X123515380Y-136501142D01*
X123515380Y-136596380D01*
X123467761Y-136739238D01*
X123372523Y-136834476D01*
X123277285Y-136882095D01*
X123086809Y-136929714D01*
X122943952Y-136929714D01*
X122753476Y-136882095D01*
X122658238Y-136834476D01*
X122563000Y-136739238D01*
X122515380Y-136596380D01*
X122515380Y-136501142D01*
X122563000Y-136358285D01*
X122610619Y-136310666D01*
X122610619Y-135929714D02*
X122563000Y-135882095D01*
X122515380Y-135786857D01*
X122515380Y-135548761D01*
X122563000Y-135453523D01*
X122610619Y-135405904D01*
X122705857Y-135358285D01*
X122801095Y-135358285D01*
X122943952Y-135405904D01*
X123515380Y-135977333D01*
X123515380Y-135358285D01*
X61539380Y-93130666D02*
X61063190Y-93464000D01*
X61539380Y-93702095D02*
X60539380Y-93702095D01*
X60539380Y-93321142D01*
X60587000Y-93225904D01*
X60634619Y-93178285D01*
X60729857Y-93130666D01*
X60872714Y-93130666D01*
X60967952Y-93178285D01*
X61015571Y-93225904D01*
X61063190Y-93321142D01*
X61063190Y-93702095D01*
X60539380Y-92797333D02*
X60539380Y-92178285D01*
X60920333Y-92511619D01*
X60920333Y-92368761D01*
X60967952Y-92273523D01*
X61015571Y-92225904D01*
X61110809Y-92178285D01*
X61348904Y-92178285D01*
X61444142Y-92225904D01*
X61491761Y-92273523D01*
X61539380Y-92368761D01*
X61539380Y-92654476D01*
X61491761Y-92749714D01*
X61444142Y-92797333D01*
X79208333Y-117419380D02*
X78875000Y-116943190D01*
X78636904Y-117419380D02*
X78636904Y-116419380D01*
X79017857Y-116419380D01*
X79113095Y-116467000D01*
X79160714Y-116514619D01*
X79208333Y-116609857D01*
X79208333Y-116752714D01*
X79160714Y-116847952D01*
X79113095Y-116895571D01*
X79017857Y-116943190D01*
X78636904Y-116943190D01*
X79589285Y-116514619D02*
X79636904Y-116467000D01*
X79732142Y-116419380D01*
X79970238Y-116419380D01*
X80065476Y-116467000D01*
X80113095Y-116514619D01*
X80160714Y-116609857D01*
X80160714Y-116705095D01*
X80113095Y-116847952D01*
X79541666Y-117419380D01*
X80160714Y-117419380D01*
X73747333Y-122118380D02*
X73414000Y-121642190D01*
X73175904Y-122118380D02*
X73175904Y-121118380D01*
X73556857Y-121118380D01*
X73652095Y-121166000D01*
X73699714Y-121213619D01*
X73747333Y-121308857D01*
X73747333Y-121451714D01*
X73699714Y-121546952D01*
X73652095Y-121594571D01*
X73556857Y-121642190D01*
X73175904Y-121642190D01*
X74699714Y-122118380D02*
X74128285Y-122118380D01*
X74414000Y-122118380D02*
X74414000Y-121118380D01*
X74318761Y-121261238D01*
X74223523Y-121356476D01*
X74128285Y-121404095D01*
X61793380Y-96877095D02*
X60793380Y-96877095D01*
X60793380Y-96639000D01*
X60841000Y-96496142D01*
X60936238Y-96400904D01*
X61031476Y-96353285D01*
X61221952Y-96305666D01*
X61364809Y-96305666D01*
X61555285Y-96353285D01*
X61650523Y-96400904D01*
X61745761Y-96496142D01*
X61793380Y-96639000D01*
X61793380Y-96877095D01*
X61793380Y-95353285D02*
X61793380Y-95924714D01*
X61793380Y-95639000D02*
X60793380Y-95639000D01*
X60936238Y-95734238D01*
X61031476Y-95829476D01*
X61079095Y-95924714D01*
X65111333Y-141073142D02*
X65063714Y-141120761D01*
X64920857Y-141168380D01*
X64825619Y-141168380D01*
X64682761Y-141120761D01*
X64587523Y-141025523D01*
X64539904Y-140930285D01*
X64492285Y-140739809D01*
X64492285Y-140596952D01*
X64539904Y-140406476D01*
X64587523Y-140311238D01*
X64682761Y-140216000D01*
X64825619Y-140168380D01*
X64920857Y-140168380D01*
X65063714Y-140216000D01*
X65111333Y-140263619D01*
X65444666Y-140168380D02*
X66063714Y-140168380D01*
X65730380Y-140549333D01*
X65873238Y-140549333D01*
X65968476Y-140596952D01*
X66016095Y-140644571D01*
X66063714Y-140739809D01*
X66063714Y-140977904D01*
X66016095Y-141073142D01*
X65968476Y-141120761D01*
X65873238Y-141168380D01*
X65587523Y-141168380D01*
X65492285Y-141120761D01*
X65444666Y-141073142D01*
M02*
