M48
; DRILL file {KiCad (5.1.5)-3} date 8/21/2020 1:56:58 PM
; FORMAT={-:-/ absolute / inch / decimal}
; #@! TF.CreationDate,2020-08-21T13:56:58-07:00
; #@! TF.GenerationSoftware,Kicad,Pcbnew,(5.1.5)-3
; #@! TF.FileFunction,Plated,1,4,PTH
FMAT,2
INCH
T1C0.0157
T2C0.0197
T3C0.0315
T4C0.0350
T5C0.0354
T6C0.0374
T7C0.0394
T8C0.0433
T9C0.0472
T10C0.0512
T11C0.0630
%
G90
G05
T1
X2.435Y-4.385
X3.78Y-4.36
X3.8Y-5.45
X4.395Y-5.815
X4.4Y-4.45
X5.3645Y-4.2905
X5.365Y-5.11
X5.42Y-3.605
X5.42Y-4.405
X5.484Y-3.528
X5.4849Y-3.4198
X5.4849Y-5.0453
X5.485Y-4.22
X5.485Y-4.3276
X5.5249Y-3.4203
X5.5249Y-5.0458
X5.525Y-4.2206
T2
X2.625Y-4.52
X2.625Y-5.355
X2.725Y-4.52
X2.725Y-5.355
X2.93Y-4.785
X2.98Y-4.035
X2.98Y-4.555
X3.05Y-4.955
X3.1Y-4.725
X3.125Y-4.825
X3.175Y-4.035
X3.195Y-4.81
X5.09Y-3.78
X5.09Y-3.84
X5.1Y-3.56
X5.1Y-3.62
X5.1Y-4.4
X5.1Y-4.46
X5.1Y-4.615
X5.1Y-4.675
X5.1Y-5.21
X5.1Y-5.27
X5.1Y-5.425
X5.1Y-5.485
X5.43Y-5.23
X5.4762Y-5.1495
T3
X4.7145Y-3.4543
X4.7145Y-3.5543
X4.7145Y-3.6543
X4.7145Y-3.7543
X4.7145Y-3.8543
X4.7145Y-3.9543
X4.7145Y-4.0543
X4.7145Y-4.1543
X5.2145Y-3.4543
X5.2145Y-3.5543
X5.2145Y-3.6543
X5.2145Y-3.7543
X5.2145Y-3.8543
X5.2145Y-3.9543
X5.2145Y-4.0543
X5.2145Y-4.1543
X3.9855Y-5.215
X3.9855Y-5.2937
X4.0643Y-5.215
X4.0643Y-5.2937
X4.1395Y-5.7756
X4.143Y-5.215
X4.143Y-5.2937
X4.2395Y-5.7756
X4.7145Y-5.1043
X4.7145Y-5.2043
X4.7145Y-5.3043
X4.7145Y-5.4043
X4.7145Y-5.5043
X4.7145Y-5.6043
X4.7145Y-5.7043
X4.7145Y-5.8043
X5.2145Y-5.1043
X5.2145Y-5.2043
X5.2145Y-5.3043
X5.2145Y-5.4043
X5.2145Y-5.5043
X5.2145Y-5.6043
X5.2145Y-5.7043
X5.2145Y-5.8043
X4.7145Y-4.2793
X4.7145Y-4.3793
X4.7145Y-4.4793
X4.7145Y-4.5793
X4.7145Y-4.6793
X4.7145Y-4.7793
X4.7145Y-4.8793
X4.7145Y-4.9793
X5.2145Y-4.2793
X5.2145Y-4.3793
X5.2145Y-4.4793
X5.2145Y-4.5793
X5.2145Y-4.6793
X5.2145Y-4.7793
X5.2145Y-4.8793
X5.2145Y-4.9793
T4
X3.0821Y-5.6425
X3.1821Y-5.5827
X3.4801Y-5.6425
X3.5801Y-5.5827
T5
X3.1561Y-5.2
X3.2061Y-5.1
X3.2561Y-5.2
X3.3061Y-5.1
X3.3561Y-5.2
X3.4061Y-5.1
X3.4561Y-5.2
X3.5061Y-5.1
T6
X3.425Y-4.175
X3.5234Y-4.175
X3.6219Y-4.175
X5.75Y-4.4563
X5.75Y-4.5547
X5.75Y-4.6531
X5.75Y-4.7516
X5.75Y-4.85
X5.4645Y-3.7591
X5.4645Y-3.8575
X5.4645Y-3.9559
X5.4645Y-4.0543
X3.425Y-3.925
X3.5234Y-3.925
X3.6219Y-3.925
X5.75Y-5.1063
X5.75Y-5.2047
X5.75Y-5.3031
X5.75Y-5.4016
X5.75Y-5.5
X3.425Y-4.425
X3.5234Y-4.425
X3.6219Y-4.425
X5.75Y-3.8063
X5.75Y-3.9047
X5.75Y-4.0031
X5.75Y-4.1016
X5.75Y-4.2
X5.4645Y-4.5841
X5.4645Y-4.6825
X5.4645Y-4.7809
X5.4645Y-4.8793
X5.4645Y-5.4091
X5.4645Y-5.5075
X5.4645Y-5.6059
X5.4645Y-5.7043
T7
X2.55Y-3.525
X2.55Y-3.625
X2.55Y-3.725
X4.8145Y-5.7043
X4.8145Y-5.8043
X4.9145Y-5.7043
X4.9145Y-5.8043
X5.0145Y-5.7043
X5.0145Y-5.8043
X5.1145Y-5.7043
X5.1145Y-5.8043
X3.425Y-4.775
X3.525Y-4.775
X3.625Y-4.775
X4.8145Y-5.1043
X4.9145Y-5.1043
X4.8145Y-4.8793
X4.8145Y-4.9793
X4.9145Y-4.8793
X4.9145Y-4.9793
X5.0145Y-4.8793
X5.0145Y-4.9793
X5.1145Y-4.8793
X5.1145Y-4.9793
X4.8145Y-3.4543
X4.9145Y-3.4543
X4.8145Y-4.7793
X4.9145Y-4.7793
X5.0145Y-4.7793
X5.1145Y-4.7793
X4.8145Y-4.2793
X4.9145Y-4.2793
X4.8145Y-4.0543
X4.8145Y-4.1543
X4.9145Y-4.0543
X4.9145Y-4.1543
X5.0145Y-4.0543
X5.0145Y-4.1543
X5.1145Y-4.0543
X5.1145Y-4.1543
X3.425Y-4.675
X3.525Y-4.675
X3.625Y-4.675
X4.8145Y-3.9543
X4.9145Y-3.9543
X5.0145Y-3.9543
X5.1145Y-3.9543
X4.815Y-5.605
X4.915Y-5.605
X5.015Y-5.605
X5.115Y-5.605
T8
X3.8895Y-3.5043
X3.8895Y-3.6043
X3.8895Y-3.7043
X3.8895Y-3.8043
X3.8895Y-3.9043
X3.8895Y-4.0043
X3.8895Y-4.1043
X3.8895Y-4.2043
X3.8895Y-4.3043
X3.8895Y-4.4043
X3.8895Y-4.5043
X3.8895Y-4.6043
X3.8895Y-4.7043
X3.8895Y-4.8043
X3.8895Y-4.9043
X3.8895Y-5.0043
X3.8895Y-5.1043
X3.8895Y-5.2043
X3.8895Y-5.3043
X3.8895Y-5.4043
X3.8895Y-5.5043
X3.8895Y-5.6043
X3.8895Y-5.7043
X3.8895Y-5.8043
X3.9895Y-4.0043
X3.9895Y-5.7043
X4.0895Y-4.0043
X4.1895Y-4.0043
X4.2895Y-4.0043
X4.3694Y-5.1563
X4.3694Y-5.2563
X4.3694Y-5.3563
X4.3694Y-5.4563
X4.3694Y-5.5563
X4.3895Y-4.0043
X4.4895Y-3.5043
X4.4895Y-3.6043
X4.4895Y-3.7043
X4.4895Y-3.8043
X4.4895Y-3.9043
X4.4895Y-4.0043
X4.4895Y-4.1043
X4.4895Y-4.2043
X4.4895Y-4.3043
X4.4895Y-4.4043
X4.4895Y-4.5043
X4.4895Y-4.6043
X4.4895Y-4.7043
X4.4895Y-4.8043
X4.4895Y-4.9043
X4.4895Y-5.0043
X4.4895Y-5.1043
X4.4895Y-5.2043
X4.4895Y-5.3043
X4.4895Y-5.4043
X4.4895Y-5.5043
X4.4895Y-5.6043
X4.4895Y-5.7043
X4.4895Y-5.8043
T9
X2.4409Y-5.7087
X2.5787Y-5.7087
X2.1654Y-4.5472
X2.1654Y-4.685
X2.1654Y-5.0984
X2.1654Y-5.2362
X2.1654Y-4.2717
X2.1654Y-4.4094
X2.1654Y-3.7205
X2.1654Y-3.8583
X2.7165Y-5.7087
X2.8543Y-5.7087
X2.1654Y-4.8228
X2.1654Y-4.9606
X2.1654Y-5.374
X2.1654Y-5.5118
X2.1654Y-3.9961
X2.1654Y-4.1339
T10
X3.0344Y-3.5543
X3.2313Y-3.5543
X3.4281Y-3.5543
X3.625Y-3.5543
T11
X3.025Y-5.3295
X3.6372Y-5.3295
T0
M30
